solid OpenSCAD_Model
  facet normal -1 -0 -0
    outer loop
      vertex 0 1.2 0
      vertex 0 1.2 4
      vertex 0 16.1 0
    endloop
  endfacet
  facet normal -1 0 0
    outer loop
      vertex 0 16.1 0
      vertex 0 1.2 4
      vertex 0 16.1 4
    endloop
  endfacet
  facet normal -0.994522 -0.104529 -0
    outer loop
      vertex 0 1.2 0
      vertex 0.026223 0.950506 0
      vertex 0 1.2 4
    endloop
  endfacet
  facet normal -0.994522 -0.104529 0
    outer loop
      vertex 0 1.2 4
      vertex 0.026223 0.950506 0
      vertex 0.026223 0.950506 4
    endloop
  endfacet
  facet normal -0 -0 -1
    outer loop
      vertex 0 1.2 0
      vertex 0 16.1 0
      vertex 0.026223 0.950506 0
    endloop
  endfacet
  facet normal 0 0 -1
    outer loop
      vertex 0.026223 0.950506 0
      vertex 0 16.1 0
      vertex 0.026223 16.3495 0
    endloop
  endfacet
  facet normal 0 -0 -1
    outer loop
      vertex 0.026223 0.950506 0
      vertex 0.026223 16.3495 0
      vertex 0.103745 16.5881 0
    endloop
  endfacet
  facet normal 0 0 -1
    outer loop
      vertex 0.026223 0.950506 0
      vertex 0.103745 16.5881 0
      vertex 0.22918 16.8053 0
    endloop
  endfacet
  facet normal 0 0 -1
    outer loop
      vertex 0.026223 0.950506 0
      vertex 0.22918 16.8053 0
      vertex 0.397043 16.9918 0
    endloop
  endfacet
  facet normal 0 0 -1
    outer loop
      vertex 0.026223 0.950506 0
      vertex 0.397043 16.9918 0
      vertex 0.6 17.1392 0
    endloop
  endfacet
  facet normal 0 0 -1
    outer loop
      vertex 0.026223 0.950506 0
      vertex 0.6 17.1392 0
      vertex 0.82918 17.2413 0
    endloop
  endfacet
  facet normal 0 0 -1
    outer loop
      vertex 0.026223 0.950506 0
      vertex 0.82918 17.2413 0
      vertex 1.07457 17.2934 0
    endloop
  endfacet
  facet normal 0 -0 -1
    outer loop
      vertex 10.8271 12.0532 0
      vertex 1.07457 17.2934 0
      vertex 18.7254 17.2934 0
    endloop
  endfacet
  facet normal 0 0 -1
    outer loop
      vertex 12.3271 10.9634 0
      vertex 19.403 16.9918 0
      vertex 19.5708 16.8053 0
    endloop
  endfacet
  facet normal -0 0 -1
    outer loop
      vertex 12.3271 7.43664 0
      vertex 19.8 16.1 0
      vertex 19.8 1.2 0
    endloop
  endfacet
  facet normal -0 0 -1
    outer loop
      vertex 0.026223 0.950506 0
      vertex 19.8 1.2 0
      vertex 19.7738 0.950506 0
    endloop
  endfacet
  facet normal 0 0 -1
    outer loop
      vertex 0.026223 0.950506 0
      vertex 19.7738 0.950506 0
      vertex 19.6963 0.711916 0
    endloop
  endfacet
  facet normal 0 0 -1
    outer loop
      vertex 0.026223 0.950506 0
      vertex 19.6963 0.711916 0
      vertex 19.5708 0.494658 0
    endloop
  endfacet
  facet normal 0 0 -1
    outer loop
      vertex 0.026223 0.950506 0
      vertex 19.5708 0.494658 0
      vertex 19.403 0.308226 0
    endloop
  endfacet
  facet normal 0 0 -1
    outer loop
      vertex 0.026223 0.950506 0
      vertex 19.403 0.308226 0
      vertex 19.2 0.16077 0
    endloop
  endfacet
  facet normal 0 0 -1
    outer loop
      vertex 0.026223 0.950506 0
      vertex 19.2 0.16077 0
      vertex 18.9708 0.058732 0
    endloop
  endfacet
  facet normal 0 0 -1
    outer loop
      vertex 0.026223 0.950506 0
      vertex 18.9708 0.058732 0
      vertex 18.7254 0.006574 0
    endloop
  endfacet
  facet normal 0 0 -1
    outer loop
      vertex 0.026223 0.950506 0
      vertex 18.7254 0.006574 0
      vertex 1.07457 0.006574 0
    endloop
  endfacet
  facet normal 0 0 -1
    outer loop
      vertex 0.026223 0.950506 0
      vertex 1.07457 0.006574 0
      vertex 0.82918 0.058732 0
    endloop
  endfacet
  facet normal 0 0 -1
    outer loop
      vertex 0.026223 0.950506 0
      vertex 0.82918 0.058732 0
      vertex 0.6 0.16077 0
    endloop
  endfacet
  facet normal 0 0 -1
    outer loop
      vertex 0.026223 0.950506 0
      vertex 0.6 0.16077 0
      vertex 0.397043 0.308226 0
    endloop
  endfacet
  facet normal 0 0 -1
    outer loop
      vertex 0.026223 0.950506 0
      vertex 0.397043 0.308226 0
      vertex 0.22918 0.494658 0
    endloop
  endfacet
  facet normal 0 0 -1
    outer loop
      vertex 0.026223 0.950506 0
      vertex 0.22918 0.494658 0
      vertex 0.103745 0.711916 0
    endloop
  endfacet
  facet normal 0 0 -1
    outer loop
      vertex 0.026223 0.950506 0
      vertex 1.07457 17.2934 0
      vertex 6.9 9.2 0
    endloop
  endfacet
  facet normal 0 0 -1
    outer loop
      vertex 0.026223 0.950506 0
      vertex 6.9 9.2 0
      vertex 6.96556 8.57626 0
    endloop
  endfacet
  facet normal 0 0 -1
    outer loop
      vertex 0.026223 0.950506 0
      vertex 6.96556 8.57626 0
      vertex 7.15936 7.97979 0
    endloop
  endfacet
  facet normal 0 0 -1
    outer loop
      vertex 7.89261 6.97057 0
      vertex 0.026223 0.950506 0
      vertex 7.47295 7.43664 0
    endloop
  endfacet
  facet normal 0 0 -1
    outer loop
      vertex 9.58641 6.21643 0
      vertex 19.8 1.2 0
      vertex 8.97295 6.34683 0
    endloop
  endfacet
  facet normal 0 0 -1
    outer loop
      vertex 0.026223 0.950506 0
      vertex 7.89261 6.97057 0
      vertex 8.4 6.60192 0
    endloop
  endfacet
  facet normal 0 0 -1
    outer loop
      vertex 0.026223 0.950506 0
      vertex 8.4 6.60192 0
      vertex 19.8 1.2 0
    endloop
  endfacet
  facet normal 0 0 -1
    outer loop
      vertex 8.4 6.60192 0
      vertex 8.97295 6.34683 0
      vertex 19.8 1.2 0
    endloop
  endfacet
  facet normal 0 0 -1
    outer loop
      vertex 12.3271 10.9634 0
      vertex 19.7738 16.3495 0
      vertex 19.8 16.1 0
    endloop
  endfacet
  facet normal -0 0 -1
    outer loop
      vertex 12.6406 7.97979 0
      vertex 19.8 16.1 0
      vertex 12.3271 7.43664 0
    endloop
  endfacet
  facet normal -0 0 -1
    outer loop
      vertex 12.8344 9.82373 0
      vertex 19.8 16.1 0
      vertex 12.9 9.2 0
    endloop
  endfacet
  facet normal 0 0 -1
    outer loop
      vertex 9.58641 6.21643 0
      vertex 10.2136 6.21643 0
      vertex 19.8 1.2 0
    endloop
  endfacet
  facet normal -0 0 -1
    outer loop
      vertex 12.9 9.2 0
      vertex 19.8 16.1 0
      vertex 12.8344 8.57626 0
    endloop
  endfacet
  facet normal -0 0 -1
    outer loop
      vertex 10.2136 6.21643 0
      vertex 10.8271 6.34683 0
      vertex 19.8 1.2 0
    endloop
  endfacet
  facet normal -0 0 -1
    outer loop
      vertex 10.8271 6.34683 0
      vertex 11.4 6.60192 0
      vertex 19.8 1.2 0
    endloop
  endfacet
  facet normal -0 0 -1
    outer loop
      vertex 12.8344 8.57626 0
      vertex 19.8 16.1 0
      vertex 12.6406 7.97979 0
    endloop
  endfacet
  facet normal -0 0 -1
    outer loop
      vertex 11.4 6.60192 0
      vertex 11.9074 6.97057 0
      vertex 19.8 1.2 0
    endloop
  endfacet
  facet normal -0 0 -1
    outer loop
      vertex 11.9074 6.97057 0
      vertex 12.3271 7.43664 0
      vertex 19.8 1.2 0
    endloop
  endfacet
  facet normal -0 0 -1
    outer loop
      vertex 12.3271 10.9634 0
      vertex 19.8 16.1 0
      vertex 12.6406 10.4202 0
    endloop
  endfacet
  facet normal -0 0 -1
    outer loop
      vertex 12.6406 10.4202 0
      vertex 19.8 16.1 0
      vertex 12.8344 9.82373 0
    endloop
  endfacet
  facet normal -0 0 -1
    outer loop
      vertex 11.9074 11.4294 0
      vertex 19.403 16.9918 0
      vertex 12.3271 10.9634 0
    endloop
  endfacet
  facet normal -0 0 -1
    outer loop
      vertex 10.8271 12.0532 0
      vertex 18.7254 17.2934 0
      vertex 11.4 11.7981 0
    endloop
  endfacet
  facet normal -0 -0 -1
    outer loop
      vertex 10.2136 12.1836 0
      vertex 1.07457 17.2934 0
      vertex 10.8271 12.0532 0
    endloop
  endfacet
  facet normal -0 -0 -1
    outer loop
      vertex 9.58641 12.1836 0
      vertex 1.07457 17.2934 0
      vertex 10.2136 12.1836 0
    endloop
  endfacet
  facet normal 0 -0 -1
    outer loop
      vertex 8.97295 12.0532 0
      vertex 1.07457 17.2934 0
      vertex 9.58641 12.1836 0
    endloop
  endfacet
  facet normal 0 -0 -1
    outer loop
      vertex 8.4 11.7981 0
      vertex 1.07457 17.2934 0
      vertex 8.97295 12.0532 0
    endloop
  endfacet
  facet normal 0 -0 -1
    outer loop
      vertex 7.89261 11.4294 0
      vertex 1.07457 17.2934 0
      vertex 8.4 11.7981 0
    endloop
  endfacet
  facet normal 0 -0 -1
    outer loop
      vertex 7.47295 10.9634 0
      vertex 1.07457 17.2934 0
      vertex 7.89261 11.4294 0
    endloop
  endfacet
  facet normal 0 -0 -1
    outer loop
      vertex 7.15936 10.4202 0
      vertex 1.07457 17.2934 0
      vertex 7.47295 10.9634 0
    endloop
  endfacet
  facet normal 0 -0 -1
    outer loop
      vertex 6.96556 9.82373 0
      vertex 1.07457 17.2934 0
      vertex 7.15936 10.4202 0
    endloop
  endfacet
  facet normal 0 -0 -1
    outer loop
      vertex 6.9 9.2 0
      vertex 1.07457 17.2934 0
      vertex 6.96556 9.82373 0
    endloop
  endfacet
  facet normal 0 0 -1
    outer loop
      vertex 7.47295 7.43664 0
      vertex 0.026223 0.950506 0
      vertex 7.15936 7.97979 0
    endloop
  endfacet
  facet normal -0 0 -1
    outer loop
      vertex 11.4 11.7981 0
      vertex 18.7254 17.2934 0
      vertex 11.9074 11.4294 0
    endloop
  endfacet
  facet normal 0 0 -1
    outer loop
      vertex 12.3271 10.9634 0
      vertex 19.5708 16.8053 0
      vertex 19.6963 16.5881 0
    endloop
  endfacet
  facet normal 0 0 -1
    outer loop
      vertex 12.3271 10.9634 0
      vertex 19.6963 16.5881 0
      vertex 19.7738 16.3495 0
    endloop
  endfacet
  facet normal 0 0 -1
    outer loop
      vertex 11.9074 11.4294 0
      vertex 18.7254 17.2934 0
      vertex 18.9708 17.2413 0
    endloop
  endfacet
  facet normal 0 0 -1
    outer loop
      vertex 11.9074 11.4294 0
      vertex 18.9708 17.2413 0
      vertex 19.2 17.1392 0
    endloop
  endfacet
  facet normal 0 0 -1
    outer loop
      vertex 11.9074 11.4294 0
      vertex 19.2 17.1392 0
      vertex 19.403 16.9918 0
    endloop
  endfacet
  facet normal -0.994522 0.104529 0
    outer loop
      vertex 0 16.1 0
      vertex 0 16.1 4
      vertex 0.026223 16.3495 0
    endloop
  endfacet
  facet normal -0.994522 0.104529 0
    outer loop
      vertex 0.026223 16.3495 0
      vertex 0 16.1 4
      vertex 0.026223 16.3495 4
    endloop
  endfacet
  facet normal 0 -0 1
    outer loop
      vertex 0 16.1 4
      vertex 0 1.2 4
      vertex 0.026223 0.950506 4
    endloop
  endfacet
  facet normal 0 0 1
    outer loop
      vertex 0.22918 0.494658 4
      vertex 0 16.1 4
      vertex 0.103745 0.711916 4
    endloop
  endfacet
  facet normal 0 0 1
    outer loop
      vertex 0.103745 0.711916 4
      vertex 0 16.1 4
      vertex 0.026223 0.950506 4
    endloop
  endfacet
  facet normal 0 0 1
    outer loop
      vertex 0.397043 0.308226 4
      vertex 0 16.1 4
      vertex 0.22918 0.494658 4
    endloop
  endfacet
  facet normal 0 0 1
    outer loop
      vertex 0.6 0.16077 4
      vertex 0 16.1 4
      vertex 0.397043 0.308226 4
    endloop
  endfacet
  facet normal 0 0 1
    outer loop
      vertex 0.82918 0.058732 4
      vertex 0 16.1 4
      vertex 0.6 0.16077 4
    endloop
  endfacet
  facet normal 0 0 1
    outer loop
      vertex 1.07457 0.006574 4
      vertex 0 16.1 4
      vertex 0.82918 0.058732 4
    endloop
  endfacet
  facet normal -0 0 1
    outer loop
      vertex 1.2 1.2 4
      vertex 0 16.1 4
      vertex 1.07457 0.006574 4
    endloop
  endfacet
  facet normal 0 0 1
    outer loop
      vertex 1.2 1.2 4
      vertex 1.2 16.1 4
      vertex 0 16.1 4
    endloop
  endfacet
  facet normal -0 0 1
    outer loop
      vertex 2.4 0.006574 4
      vertex 1.2 1.2 4
      vertex 1.07457 0.006574 4
    endloop
  endfacet
  facet normal -0 0 1.78683e-016
    outer loop
      vertex 18.6 16.1 4
      vertex 0 16.1 4
      vertex 1.2 16.1 4
    endloop
  endfacet
  facet normal 0 0 1.4803e-015
    outer loop
      vertex 19.8 16.1 4
      vertex 17.4 16.1 4
      vertex 18.6 16.1 4
    endloop
  endfacet
  facet normal 0 0 1
    outer loop
      vertex 18.7254 0.006574 4
      vertex 18.6 16.1 4
      vertex 18.6 1.2 4
    endloop
  endfacet
  facet normal -0 0 1
    outer loop
      vertex 18.7254 0.006574 4
      vertex 18.6 1.2 4
      vertex 17.4 0.006574 4
    endloop
  endfacet
  facet normal -0 0 1
    outer loop
      vertex 18.9708 0.058732 4
      vertex 18.6 16.1 4
      vertex 18.7254 0.006574 4
    endloop
  endfacet
  facet normal -0 0 1
    outer loop
      vertex 19.2 0.16077 4
      vertex 18.6 16.1 4
      vertex 18.9708 0.058732 4
    endloop
  endfacet
  facet normal -0 0 1
    outer loop
      vertex 19.403 0.308226 4
      vertex 18.6 16.1 4
      vertex 19.2 0.16077 4
    endloop
  endfacet
  facet normal -0 0 1
    outer loop
      vertex 19.5708 0.494658 4
      vertex 18.6 16.1 4
      vertex 19.403 0.308226 4
    endloop
  endfacet
  facet normal -0 0 1
    outer loop
      vertex 19.6963 0.711916 4
      vertex 18.6 16.1 4
      vertex 19.5708 0.494658 4
    endloop
  endfacet
  facet normal -0 0 1
    outer loop
      vertex 19.7738 0.950506 4
      vertex 18.6 16.1 4
      vertex 19.6963 0.711916 4
    endloop
  endfacet
  facet normal -0 0 1
    outer loop
      vertex 19.8 1.2 4
      vertex 18.6 16.1 4
      vertex 19.7738 0.950506 4
    endloop
  endfacet
  facet normal 0 0 1
    outer loop
      vertex 19.8 16.1 4
      vertex 18.6 16.1 4
      vertex 19.8 1.2 4
    endloop
  endfacet
  facet normal 0 -0 2.36848e-016
    outer loop
      vertex 17.4 16.1 4
      vertex 2.4 16.1 4
      vertex 18.6 16.1 4
    endloop
  endfacet
  facet normal 0 -0 1
    outer loop
      vertex 19.7738 16.3495 4
      vertex 17.4 16.1 4
      vertex 19.8 16.1 4
    endloop
  endfacet
  facet normal 0 -0 3.24894e-017
    outer loop
      vertex 2.4 16.1 4
      vertex 0 16.1 4
      vertex 18.6 16.1 4
    endloop
  endfacet
  facet normal -0 0 1
    outer loop
      vertex 2.4 16.1 4
      vertex 2.4 17.2934 4
      vertex 0 16.1 4
    endloop
  endfacet
  facet normal 0 -0 1
    outer loop
      vertex 1.07457 17.2934 4
      vertex 0 16.1 4
      vertex 2.4 17.2934 4
    endloop
  endfacet
  facet normal 0 -0 1
    outer loop
      vertex 0.82918 17.2413 4
      vertex 0 16.1 4
      vertex 1.07457 17.2934 4
    endloop
  endfacet
  facet normal 0 -0 1
    outer loop
      vertex 0.6 17.1392 4
      vertex 0 16.1 4
      vertex 0.82918 17.2413 4
    endloop
  endfacet
  facet normal 0 -0 1
    outer loop
      vertex 0.397043 16.9918 4
      vertex 0 16.1 4
      vertex 0.6 17.1392 4
    endloop
  endfacet
  facet normal 0 -0 1
    outer loop
      vertex 0.22918 16.8053 4
      vertex 0 16.1 4
      vertex 0.397043 16.9918 4
    endloop
  endfacet
  facet normal 0 -0 1
    outer loop
      vertex 0.103745 16.5881 4
      vertex 0 16.1 4
      vertex 0.22918 16.8053 4
    endloop
  endfacet
  facet normal 0 -0 1
    outer loop
      vertex 0.026223 16.3495 4
      vertex 0 16.1 4
      vertex 0.103745 16.5881 4
    endloop
  endfacet
  facet normal 0 -0 1
    outer loop
      vertex 17.4 1.2 4
      vertex 17.4 0.006574 4
      vertex 18.6 1.2 4
    endloop
  endfacet
  facet normal 0 0 1
    outer loop
      vertex 2.4 1.2 4
      vertex 1.2 1.2 4
      vertex 2.4 0.006574 4
    endloop
  endfacet
  facet normal 0 0 1
    outer loop
      vertex 17.4 17.2934 4
      vertex 18.9708 17.2413 4
      vertex 18.7254 17.2934 4
    endloop
  endfacet
  facet normal 0 0 1
    outer loop
      vertex 17.4 17.2934 4
      vertex 19.2 17.1392 4
      vertex 18.9708 17.2413 4
    endloop
  endfacet
  facet normal 0 0 1
    outer loop
      vertex 17.4 17.2934 4
      vertex 19.403 16.9918 4
      vertex 19.2 17.1392 4
    endloop
  endfacet
  facet normal 0 0 1
    outer loop
      vertex 17.4 17.2934 4
      vertex 19.5708 16.8053 4
      vertex 19.403 16.9918 4
    endloop
  endfacet
  facet normal 0 0 1
    outer loop
      vertex 17.4 17.2934 4
      vertex 19.6963 16.5881 4
      vertex 19.5708 16.8053 4
    endloop
  endfacet
  facet normal 0 0 1
    outer loop
      vertex 17.4 17.2934 4
      vertex 19.7738 16.3495 4
      vertex 19.6963 16.5881 4
    endloop
  endfacet
  facet normal 0 -0 1
    outer loop
      vertex 17.4 17.2934 4
      vertex 17.4 16.1 4
      vertex 19.7738 16.3495 4
    endloop
  endfacet
  facet normal -0.951057 -0.309015 -0
    outer loop
      vertex 0.026223 0.950506 0
      vertex 0.103745 0.711916 0
      vertex 0.026223 0.950506 4
    endloop
  endfacet
  facet normal -0.951057 -0.309015 0
    outer loop
      vertex 0.026223 0.950506 4
      vertex 0.103745 0.711916 0
      vertex 0.103745 0.711916 4
    endloop
  endfacet
  facet normal -0.866024 -0.500003 -0
    outer loop
      vertex 0.103745 0.711916 0
      vertex 0.22918 0.494658 0
      vertex 0.103745 0.711916 4
    endloop
  endfacet
  facet normal -0.866024 -0.500003 0
    outer loop
      vertex 0.103745 0.711916 4
      vertex 0.22918 0.494658 0
      vertex 0.22918 0.494658 4
    endloop
  endfacet
  facet normal -0.743147 -0.669128 -0
    outer loop
      vertex 0.22918 0.494658 0
      vertex 0.397043 0.308226 0
      vertex 0.22918 0.494658 4
    endloop
  endfacet
  facet normal -0.743147 -0.669128 0
    outer loop
      vertex 0.22918 0.494658 4
      vertex 0.397043 0.308226 0
      vertex 0.397043 0.308226 4
    endloop
  endfacet
  facet normal -0.587783 -0.809019 0
    outer loop
      vertex 0.397043 0.308226 4
      vertex 0.397043 0.308226 0
      vertex 0.6 0.16077 0
    endloop
  endfacet
  facet normal -0.587783 -0.809019 0
    outer loop
      vertex 0.6 0.16077 4
      vertex 0.397043 0.308226 4
      vertex 0.6 0.16077 0
    endloop
  endfacet
  facet normal -0.406738 -0.913545 0
    outer loop
      vertex 0.6 0.16077 4
      vertex 0.6 0.16077 0
      vertex 0.82918 0.058732 0
    endloop
  endfacet
  facet normal -0.406738 -0.913545 0
    outer loop
      vertex 0.82918 0.058732 4
      vertex 0.6 0.16077 4
      vertex 0.82918 0.058732 0
    endloop
  endfacet
  facet normal -0.20791 -0.978148 0
    outer loop
      vertex 0.82918 0.058732 4
      vertex 0.82918 0.058732 0
      vertex 1.07457 0.006574 0
    endloop
  endfacet
  facet normal -0.20791 -0.978148 0
    outer loop
      vertex 1.07457 0.006574 4
      vertex 0.82918 0.058732 4
      vertex 1.07457 0.006574 0
    endloop
  endfacet
  facet normal 0 -1 0
    outer loop
      vertex 1.07457 0.006574 4
      vertex 1.07457 0.006574 0
      vertex 18.7254 0.006574 0
    endloop
  endfacet
  facet normal 0 -1 0
    outer loop
      vertex 2.4 0.006574 4
      vertex 1.07457 0.006574 4
      vertex 18.7254 0.006574 0
    endloop
  endfacet
  facet normal 0 -1 0
    outer loop
      vertex 18.7254 0.006574 4
      vertex 17.4 0.006574 4
      vertex 18.7254 0.006574 0
    endloop
  endfacet
  facet normal 0 -1 0
    outer loop
      vertex 17.4 0.006574 4
      vertex 2.4 0.006574 4
      vertex 18.7254 0.006574 0
    endloop
  endfacet
  facet normal 0.20791 -0.978148 0
    outer loop
      vertex 18.7254 0.006574 4
      vertex 18.7254 0.006574 0
      vertex 18.9708 0.058732 0
    endloop
  endfacet
  facet normal 0.20791 -0.978148 0
    outer loop
      vertex 18.9708 0.058732 4
      vertex 18.7254 0.006574 4
      vertex 18.9708 0.058732 0
    endloop
  endfacet
  facet normal 0.406738 -0.913545 0
    outer loop
      vertex 18.9708 0.058732 4
      vertex 18.9708 0.058732 0
      vertex 19.2 0.16077 0
    endloop
  endfacet
  facet normal 0.406738 -0.913545 0
    outer loop
      vertex 19.2 0.16077 4
      vertex 18.9708 0.058732 4
      vertex 19.2 0.16077 0
    endloop
  endfacet
  facet normal 0.587783 -0.809019 0
    outer loop
      vertex 19.2 0.16077 4
      vertex 19.2 0.16077 0
      vertex 19.403 0.308226 0
    endloop
  endfacet
  facet normal 0.587783 -0.809019 0
    outer loop
      vertex 19.403 0.308226 4
      vertex 19.2 0.16077 4
      vertex 19.403 0.308226 0
    endloop
  endfacet
  facet normal 0.743147 -0.669128 0
    outer loop
      vertex 19.403 0.308226 4
      vertex 19.403 0.308226 0
      vertex 19.5708 0.494658 0
    endloop
  endfacet
  facet normal 0.743147 -0.669128 0
    outer loop
      vertex 19.5708 0.494658 4
      vertex 19.403 0.308226 4
      vertex 19.5708 0.494658 0
    endloop
  endfacet
  facet normal 0.866024 -0.500003 0
    outer loop
      vertex 19.5708 0.494658 4
      vertex 19.5708 0.494658 0
      vertex 19.6963 0.711916 0
    endloop
  endfacet
  facet normal 0.866024 -0.500003 0
    outer loop
      vertex 19.6963 0.711916 4
      vertex 19.5708 0.494658 4
      vertex 19.6963 0.711916 0
    endloop
  endfacet
  facet normal 0.951057 -0.309015 0
    outer loop
      vertex 19.6963 0.711916 4
      vertex 19.6963 0.711916 0
      vertex 19.7738 0.950506 0
    endloop
  endfacet
  facet normal 0.951057 -0.309015 0
    outer loop
      vertex 19.7738 0.950506 4
      vertex 19.6963 0.711916 4
      vertex 19.7738 0.950506 0
    endloop
  endfacet
  facet normal 0.994522 -0.104529 0
    outer loop
      vertex 19.7738 0.950506 4
      vertex 19.7738 0.950506 0
      vertex 19.8 1.2 0
    endloop
  endfacet
  facet normal 0.994522 -0.104529 0
    outer loop
      vertex 19.8 1.2 4
      vertex 19.7738 0.950506 4
      vertex 19.8 1.2 0
    endloop
  endfacet
  facet normal 1 0 -0
    outer loop
      vertex 19.8 1.2 4
      vertex 19.8 1.2 0
      vertex 19.8 16.1 0
    endloop
  endfacet
  facet normal 1 0 0
    outer loop
      vertex 19.8 16.1 4
      vertex 19.8 1.2 4
      vertex 19.8 16.1 0
    endloop
  endfacet
  facet normal 0.994522 0.104529 0
    outer loop
      vertex 19.8 16.1 0
      vertex 19.7738 16.3495 0
      vertex 19.7738 16.3495 4
    endloop
  endfacet
  facet normal 0.994522 0.104529 -0
    outer loop
      vertex 19.8 16.1 4
      vertex 19.8 16.1 0
      vertex 19.7738 16.3495 4
    endloop
  endfacet
  facet normal 0.951057 0.309015 0
    outer loop
      vertex 19.7738 16.3495 0
      vertex 19.6963 16.5881 0
      vertex 19.6963 16.5881 4
    endloop
  endfacet
  facet normal 0.951057 0.309015 -0
    outer loop
      vertex 19.7738 16.3495 4
      vertex 19.7738 16.3495 0
      vertex 19.6963 16.5881 4
    endloop
  endfacet
  facet normal 0.866024 0.500003 0
    outer loop
      vertex 19.6963 16.5881 0
      vertex 19.5708 16.8053 0
      vertex 19.5708 16.8053 4
    endloop
  endfacet
  facet normal 0.866024 0.500003 -0
    outer loop
      vertex 19.6963 16.5881 4
      vertex 19.6963 16.5881 0
      vertex 19.5708 16.8053 4
    endloop
  endfacet
  facet normal 0.743147 0.669128 0
    outer loop
      vertex 19.5708 16.8053 0
      vertex 19.403 16.9918 0
      vertex 19.403 16.9918 4
    endloop
  endfacet
  facet normal 0.743147 0.669128 -0
    outer loop
      vertex 19.5708 16.8053 4
      vertex 19.5708 16.8053 0
      vertex 19.403 16.9918 4
    endloop
  endfacet
  facet normal 0.587783 0.809019 0
    outer loop
      vertex 19.2 17.1392 0
      vertex 19.2 17.1392 4
      vertex 19.403 16.9918 0
    endloop
  endfacet
  facet normal 0.587783 0.809019 0
    outer loop
      vertex 19.403 16.9918 0
      vertex 19.2 17.1392 4
      vertex 19.403 16.9918 4
    endloop
  endfacet
  facet normal 0.406738 0.913545 0
    outer loop
      vertex 18.9708 17.2413 0
      vertex 18.9708 17.2413 4
      vertex 19.2 17.1392 0
    endloop
  endfacet
  facet normal 0.406738 0.913545 0
    outer loop
      vertex 19.2 17.1392 0
      vertex 18.9708 17.2413 4
      vertex 19.2 17.1392 4
    endloop
  endfacet
  facet normal 0.20791 0.978148 0
    outer loop
      vertex 18.7254 17.2934 0
      vertex 18.7254 17.2934 4
      vertex 18.9708 17.2413 0
    endloop
  endfacet
  facet normal 0.20791 0.978148 0
    outer loop
      vertex 18.9708 17.2413 0
      vertex 18.7254 17.2934 4
      vertex 18.9708 17.2413 4
    endloop
  endfacet
  facet normal 0 1 0
    outer loop
      vertex 1.07457 17.2934 0
      vertex 1.07457 17.2934 4
      vertex 18.7254 17.2934 0
    endloop
  endfacet
  facet normal 0 1 0
    outer loop
      vertex 18.7254 17.2934 0
      vertex 1.07457 17.2934 4
      vertex 2.4 17.2934 4
    endloop
  endfacet
  facet normal 0 1 0
    outer loop
      vertex 18.7254 17.2934 0
      vertex 2.4 17.2934 4
      vertex 17.4 17.2934 4
    endloop
  endfacet
  facet normal 0 1 0
    outer loop
      vertex 18.7254 17.2934 0
      vertex 17.4 17.2934 4
      vertex 18.7254 17.2934 4
    endloop
  endfacet
  facet normal -0.20791 0.978148 0
    outer loop
      vertex 0.82918 17.2413 0
      vertex 0.82918 17.2413 4
      vertex 1.07457 17.2934 0
    endloop
  endfacet
  facet normal -0.20791 0.978148 0
    outer loop
      vertex 1.07457 17.2934 0
      vertex 0.82918 17.2413 4
      vertex 1.07457 17.2934 4
    endloop
  endfacet
  facet normal -0.406738 0.913545 0
    outer loop
      vertex 0.6 17.1392 0
      vertex 0.6 17.1392 4
      vertex 0.82918 17.2413 0
    endloop
  endfacet
  facet normal -0.406738 0.913545 0
    outer loop
      vertex 0.82918 17.2413 0
      vertex 0.6 17.1392 4
      vertex 0.82918 17.2413 4
    endloop
  endfacet
  facet normal -0.587783 0.809019 0
    outer loop
      vertex 0.397043 16.9918 0
      vertex 0.397043 16.9918 4
      vertex 0.6 17.1392 0
    endloop
  endfacet
  facet normal -0.587783 0.809019 0
    outer loop
      vertex 0.6 17.1392 0
      vertex 0.397043 16.9918 4
      vertex 0.6 17.1392 4
    endloop
  endfacet
  facet normal -0.743147 0.669128 0
    outer loop
      vertex 0.22918 16.8053 0
      vertex 0.22918 16.8053 4
      vertex 0.397043 16.9918 0
    endloop
  endfacet
  facet normal -0.743147 0.669128 0
    outer loop
      vertex 0.397043 16.9918 0
      vertex 0.22918 16.8053 4
      vertex 0.397043 16.9918 4
    endloop
  endfacet
  facet normal -0.866024 0.500003 0
    outer loop
      vertex 0.103745 16.5881 0
      vertex 0.103745 16.5881 4
      vertex 0.22918 16.8053 0
    endloop
  endfacet
  facet normal -0.866024 0.500003 0
    outer loop
      vertex 0.22918 16.8053 0
      vertex 0.103745 16.5881 4
      vertex 0.22918 16.8053 4
    endloop
  endfacet
  facet normal -0.951057 0.309015 0
    outer loop
      vertex 0.026223 16.3495 0
      vertex 0.026223 16.3495 4
      vertex 0.103745 16.5881 0
    endloop
  endfacet
  facet normal -0.951057 0.309015 0
    outer loop
      vertex 0.103745 16.5881 0
      vertex 0.026223 16.3495 4
      vertex 0.103745 16.5881 4
    endloop
  endfacet
  facet normal 0.994522 -0.104528 0
    outer loop
      vertex 6.96556 9.82373 0
      vertex 6.96556 9.82373 1.2
      vertex 6.9 9.2 1.2
    endloop
  endfacet
  facet normal 0.994522 -0.104528 0
    outer loop
      vertex 6.9 9.2 0
      vertex 6.96556 9.82373 0
      vertex 6.9 9.2 1.2
    endloop
  endfacet
  facet normal 0.994522 0.104528 0
    outer loop
      vertex 6.9 9.2 1.2
      vertex 6.96556 8.57626 1.2
      vertex 6.96556 8.57626 0
    endloop
  endfacet
  facet normal 0.994522 0.104528 0
    outer loop
      vertex 6.9 9.2 0
      vertex 6.9 9.2 1.2
      vertex 6.96556 8.57626 0
    endloop
  endfacet
  facet normal 0.951056 -0.309018 0
    outer loop
      vertex 7.15936 10.4202 0
      vertex 7.15936 10.4202 1.2
      vertex 6.96556 9.82373 1.2
    endloop
  endfacet
  facet normal 0.951056 -0.309018 0
    outer loop
      vertex 6.96556 9.82373 0
      vertex 7.15936 10.4202 0
      vertex 6.96556 9.82373 1.2
    endloop
  endfacet
  facet normal 0.866026 -0.499999 0
    outer loop
      vertex 7.47295 10.9634 0
      vertex 7.47295 10.9634 1.2
      vertex 7.15936 10.4202 1.2
    endloop
  endfacet
  facet normal 0.866026 -0.499999 0
    outer loop
      vertex 7.15936 10.4202 0
      vertex 7.47295 10.9634 0
      vertex 7.15936 10.4202 1.2
    endloop
  endfacet
  facet normal 0.743144 -0.669131 0
    outer loop
      vertex 7.89261 11.4294 0
      vertex 7.89261 11.4294 1.2
      vertex 7.47295 10.9634 1.2
    endloop
  endfacet
  facet normal 0.743144 -0.669131 0
    outer loop
      vertex 7.47295 10.9634 0
      vertex 7.89261 11.4294 0
      vertex 7.47295 10.9634 1.2
    endloop
  endfacet
  facet normal 0.587785 -0.809017 0
    outer loop
      vertex 8.4 11.7981 0
      vertex 8.4 11.7981 1.2
      vertex 7.89261 11.4294 1.2
    endloop
  endfacet
  facet normal 0.587785 -0.809017 0
    outer loop
      vertex 7.89261 11.4294 0
      vertex 8.4 11.7981 0
      vertex 7.89261 11.4294 1.2
    endloop
  endfacet
  facet normal 0.406738 -0.913545 0
    outer loop
      vertex 8.97295 12.0532 0
      vertex 8.97295 12.0532 1.2
      vertex 8.4 11.7981 1.2
    endloop
  endfacet
  facet normal 0.406738 -0.913545 0
    outer loop
      vertex 8.4 11.7981 0
      vertex 8.97295 12.0532 0
      vertex 8.4 11.7981 1.2
    endloop
  endfacet
  facet normal 0.207911 -0.978148 0
    outer loop
      vertex 9.58641 12.1836 0
      vertex 9.58641 12.1836 1.2
      vertex 8.97295 12.0532 1.2
    endloop
  endfacet
  facet normal 0.207911 -0.978148 0
    outer loop
      vertex 8.97295 12.0532 0
      vertex 9.58641 12.1836 0
      vertex 8.97295 12.0532 1.2
    endloop
  endfacet
  facet normal 0 -1 0
    outer loop
      vertex 10.2136 12.1836 0
      vertex 10.2136 12.1836 1.2
      vertex 9.58641 12.1836 1.2
    endloop
  endfacet
  facet normal -0 -1 -0
    outer loop
      vertex 9.58641 12.1836 0
      vertex 10.2136 12.1836 0
      vertex 9.58641 12.1836 1.2
    endloop
  endfacet
  facet normal -0.207911 -0.978148 -0
    outer loop
      vertex 10.8271 12.0532 0
      vertex 10.8271 12.0532 1.2
      vertex 10.2136 12.1836 1.2
    endloop
  endfacet
  facet normal -0.207911 -0.978148 -0
    outer loop
      vertex 10.2136 12.1836 0
      vertex 10.8271 12.0532 0
      vertex 10.2136 12.1836 1.2
    endloop
  endfacet
  facet normal -0.406738 -0.913545 -0
    outer loop
      vertex 11.4 11.7981 0
      vertex 11.4 11.7981 1.2
      vertex 10.8271 12.0532 1.2
    endloop
  endfacet
  facet normal -0.406738 -0.913545 -0
    outer loop
      vertex 10.8271 12.0532 0
      vertex 11.4 11.7981 0
      vertex 10.8271 12.0532 1.2
    endloop
  endfacet
  facet normal -0.587785 -0.809017 -0
    outer loop
      vertex 11.9074 11.4294 0
      vertex 11.9074 11.4294 1.2
      vertex 11.4 11.7981 1.2
    endloop
  endfacet
  facet normal -0.587785 -0.809017 -0
    outer loop
      vertex 11.4 11.7981 0
      vertex 11.9074 11.4294 0
      vertex 11.4 11.7981 1.2
    endloop
  endfacet
  facet normal -0.743144 -0.669131 0
    outer loop
      vertex 12.3271 10.9634 1.2
      vertex 11.9074 11.4294 1.2
      vertex 12.3271 10.9634 0
    endloop
  endfacet
  facet normal -0.743144 -0.669131 0
    outer loop
      vertex 12.3271 10.9634 0
      vertex 11.9074 11.4294 1.2
      vertex 11.9074 11.4294 0
    endloop
  endfacet
  facet normal -0.866026 -0.499999 0
    outer loop
      vertex 12.6406 10.4202 1.2
      vertex 12.3271 10.9634 1.2
      vertex 12.6406 10.4202 0
    endloop
  endfacet
  facet normal -0.866026 -0.499999 0
    outer loop
      vertex 12.6406 10.4202 0
      vertex 12.3271 10.9634 1.2
      vertex 12.3271 10.9634 0
    endloop
  endfacet
  facet normal -0.951056 -0.309018 0
    outer loop
      vertex 12.8344 9.82373 1.2
      vertex 12.6406 10.4202 1.2
      vertex 12.8344 9.82373 0
    endloop
  endfacet
  facet normal -0.951056 -0.309018 0
    outer loop
      vertex 12.8344 9.82373 0
      vertex 12.6406 10.4202 1.2
      vertex 12.6406 10.4202 0
    endloop
  endfacet
  facet normal -0.994522 -0.104528 0
    outer loop
      vertex 12.9 9.2 1.2
      vertex 12.8344 9.82373 1.2
      vertex 12.9 9.2 0
    endloop
  endfacet
  facet normal -0.994522 -0.104528 0
    outer loop
      vertex 12.9 9.2 0
      vertex 12.8344 9.82373 1.2
      vertex 12.8344 9.82373 0
    endloop
  endfacet
  facet normal -0.994522 0.104528 0
    outer loop
      vertex 12.9 9.2 1.2
      vertex 12.9 9.2 0
      vertex 12.8344 8.57626 1.2
    endloop
  endfacet
  facet normal -0.994522 0.104528 0
    outer loop
      vertex 12.8344 8.57626 1.2
      vertex 12.9 9.2 0
      vertex 12.8344 8.57626 0
    endloop
  endfacet
  facet normal -0.951056 0.309018 0
    outer loop
      vertex 12.8344 8.57626 1.2
      vertex 12.8344 8.57626 0
      vertex 12.6406 7.97979 1.2
    endloop
  endfacet
  facet normal -0.951056 0.309018 0
    outer loop
      vertex 12.6406 7.97979 1.2
      vertex 12.8344 8.57626 0
      vertex 12.6406 7.97979 0
    endloop
  endfacet
  facet normal -0.866026 0.499999 0
    outer loop
      vertex 12.6406 7.97979 1.2
      vertex 12.6406 7.97979 0
      vertex 12.3271 7.43664 1.2
    endloop
  endfacet
  facet normal -0.866026 0.499999 0
    outer loop
      vertex 12.3271 7.43664 1.2
      vertex 12.6406 7.97979 0
      vertex 12.3271 7.43664 0
    endloop
  endfacet
  facet normal -0.743144 0.669131 0
    outer loop
      vertex 12.3271 7.43664 1.2
      vertex 12.3271 7.43664 0
      vertex 11.9074 6.97057 1.2
    endloop
  endfacet
  facet normal -0.743144 0.669131 0
    outer loop
      vertex 11.9074 6.97057 1.2
      vertex 12.3271 7.43664 0
      vertex 11.9074 6.97057 0
    endloop
  endfacet
  facet normal -0.587785 0.809017 0
    outer loop
      vertex 11.9074 6.97057 1.2
      vertex 11.9074 6.97057 0
      vertex 11.4 6.60192 1.2
    endloop
  endfacet
  facet normal -0.587785 0.809017 0
    outer loop
      vertex 11.4 6.60192 1.2
      vertex 11.9074 6.97057 0
      vertex 11.4 6.60192 0
    endloop
  endfacet
  facet normal -0.406738 0.913545 0
    outer loop
      vertex 11.4 6.60192 1.2
      vertex 11.4 6.60192 0
      vertex 10.8271 6.34683 1.2
    endloop
  endfacet
  facet normal -0.406738 0.913545 0
    outer loop
      vertex 10.8271 6.34683 1.2
      vertex 11.4 6.60192 0
      vertex 10.8271 6.34683 0
    endloop
  endfacet
  facet normal -0.207911 0.978148 0
    outer loop
      vertex 10.8271 6.34683 1.2
      vertex 10.8271 6.34683 0
      vertex 10.2136 6.21643 1.2
    endloop
  endfacet
  facet normal -0.207911 0.978148 0
    outer loop
      vertex 10.2136 6.21643 1.2
      vertex 10.8271 6.34683 0
      vertex 10.2136 6.21643 0
    endloop
  endfacet
  facet normal 0 1 0
    outer loop
      vertex 10.2136 6.21643 1.2
      vertex 10.2136 6.21643 0
      vertex 9.58641 6.21643 1.2
    endloop
  endfacet
  facet normal 0 1 -0
    outer loop
      vertex 9.58641 6.21643 1.2
      vertex 10.2136 6.21643 0
      vertex 9.58641 6.21643 0
    endloop
  endfacet
  facet normal 0.207911 0.978148 -0
    outer loop
      vertex 9.58641 6.21643 1.2
      vertex 9.58641 6.21643 0
      vertex 8.97295 6.34683 1.2
    endloop
  endfacet
  facet normal 0.207911 0.978148 -0
    outer loop
      vertex 8.97295 6.34683 1.2
      vertex 9.58641 6.21643 0
      vertex 8.97295 6.34683 0
    endloop
  endfacet
  facet normal 0.406738 0.913545 -0
    outer loop
      vertex 8.97295 6.34683 1.2
      vertex 8.97295 6.34683 0
      vertex 8.4 6.60192 1.2
    endloop
  endfacet
  facet normal 0.406738 0.913545 -0
    outer loop
      vertex 8.4 6.60192 1.2
      vertex 8.97295 6.34683 0
      vertex 8.4 6.60192 0
    endloop
  endfacet
  facet normal 0.587785 0.809017 -0
    outer loop
      vertex 8.4 6.60192 1.2
      vertex 8.4 6.60192 0
      vertex 7.89261 6.97057 1.2
    endloop
  endfacet
  facet normal 0.587785 0.809017 -0
    outer loop
      vertex 7.89261 6.97057 1.2
      vertex 8.4 6.60192 0
      vertex 7.89261 6.97057 0
    endloop
  endfacet
  facet normal 0.743144 0.669131 0
    outer loop
      vertex 7.47295 7.43664 1.2
      vertex 7.89261 6.97057 1.2
      vertex 7.89261 6.97057 0
    endloop
  endfacet
  facet normal 0.743144 0.669131 0
    outer loop
      vertex 7.47295 7.43664 0
      vertex 7.47295 7.43664 1.2
      vertex 7.89261 6.97057 0
    endloop
  endfacet
  facet normal 0.866026 0.499999 0
    outer loop
      vertex 7.15936 7.97979 1.2
      vertex 7.47295 7.43664 1.2
      vertex 7.47295 7.43664 0
    endloop
  endfacet
  facet normal 0.866026 0.499999 0
    outer loop
      vertex 7.15936 7.97979 0
      vertex 7.15936 7.97979 1.2
      vertex 7.47295 7.43664 0
    endloop
  endfacet
  facet normal 0.951056 0.309018 0
    outer loop
      vertex 6.96556 8.57626 1.2
      vertex 7.15936 7.97979 1.2
      vertex 7.15936 7.97979 0
    endloop
  endfacet
  facet normal 0.951056 0.309018 0
    outer loop
      vertex 6.96556 8.57626 0
      vertex 6.96556 8.57626 1.2
      vertex 7.15936 7.97979 0
    endloop
  endfacet
  facet normal 0 0 -1
    outer loop
      vertex 17.4 17.3 4
      vertex 17.4 17.2934 4
      vertex 2.4 17.3 4
    endloop
  endfacet
  facet normal 0 0 -1
    outer loop
      vertex 2.4 17.3 4
      vertex 17.4 17.2934 4
      vertex 2.4 17.2934 4
    endloop
  endfacet
  facet normal -1 -0 -0
    outer loop
      vertex 2.4 16.1 4
      vertex 2.4 16.1 8
      vertex 2.4 17.2934 4
    endloop
  endfacet
  facet normal -1 0 -0
    outer loop
      vertex 2.4 17.2934 4
      vertex 2.4 16.1 8
      vertex 2.4 17.3 8
    endloop
  endfacet
  facet normal -1 -0 0
    outer loop
      vertex 2.4 17.2934 4
      vertex 2.4 17.3 8
      vertex 2.4 17.3 4
    endloop
  endfacet
  facet normal 0 -1 0
    outer loop
      vertex 2.4 16.1 8
      vertex 2.4 16.1 4
      vertex 17.4 16.1 4
    endloop
  endfacet
  facet normal 0 -1 0
    outer loop
      vertex 17.4 16.1 8
      vertex 2.4 16.1 8
      vertex 17.4 16.1 4
    endloop
  endfacet
  facet normal 1 0 -0
    outer loop
      vertex 17.4 16.1 8
      vertex 17.4 16.1 4
      vertex 17.4 17.2934 4
    endloop
  endfacet
  facet normal 1 0 0
    outer loop
      vertex 17.4 17.3 8
      vertex 17.4 16.1 8
      vertex 17.4 17.3 4
    endloop
  endfacet
  facet normal 1 -0 0
    outer loop
      vertex 17.4 17.3 4
      vertex 17.4 16.1 8
      vertex 17.4 17.2934 4
    endloop
  endfacet
  facet normal 0 0 -1
    outer loop
      vertex 17.4 0.006574 4
      vertex 17.4 0 4
      vertex 2.4 0.006574 4
    endloop
  endfacet
  facet normal 0 0 -1
    outer loop
      vertex 2.4 0.006574 4
      vertex 17.4 0 4
      vertex 2.4 0 4
    endloop
  endfacet
  facet normal 1 0 -0
    outer loop
      vertex 17.4 0 8
      vertex 17.4 0 4
      vertex 17.4 0.006574 4
    endloop
  endfacet
  facet normal 1 0 0
    outer loop
      vertex 17.4 1.2 8
      vertex 17.4 0 8
      vertex 17.4 1.2 4
    endloop
  endfacet
  facet normal 1 -0 0
    outer loop
      vertex 17.4 1.2 4
      vertex 17.4 0 8
      vertex 17.4 0.006574 4
    endloop
  endfacet
  facet normal 0 1 0
    outer loop
      vertex 2.4 1.2 4
      vertex 2.4 1.2 8
      vertex 17.4 1.2 4
    endloop
  endfacet
  facet normal 0 1 0
    outer loop
      vertex 17.4 1.2 4
      vertex 2.4 1.2 8
      vertex 17.4 1.2 8
    endloop
  endfacet
  facet normal 0 1 -0
    outer loop
      vertex 17.4 1.2 4
      vertex 18.6 1.2 1.2
      vertex 2.4 1.2 4
    endloop
  endfacet
  facet normal 0 1 -0
    outer loop
      vertex 2.4 1.2 4
      vertex 18.6 1.2 1.2
      vertex 1.2 1.2 4
    endloop
  endfacet
  facet normal 0 1 0
    outer loop
      vertex 18.6 1.2 4
      vertex 18.6 1.2 1.2
      vertex 17.4 1.2 4
    endloop
  endfacet
  facet normal 0 1 -0
    outer loop
      vertex 1.2 1.2 4
      vertex 18.6 1.2 1.2
      vertex 1.2 1.2 1.2
    endloop
  endfacet
  facet normal -1 0 0
    outer loop
      vertex 18.6 16.1 4
      vertex 18.6 16.1 1.2
      vertex 18.6 1.2 4
    endloop
  endfacet
  facet normal -1 0 0
    outer loop
      vertex 18.6 1.2 4
      vertex 18.6 16.1 1.2
      vertex 18.6 1.2 1.2
    endloop
  endfacet
  facet normal 0 -1 0
    outer loop
      vertex 18.6 16.1 1.2
      vertex 18.6 16.1 4
      vertex 1.2 16.1 4
    endloop
  endfacet
  facet normal -0 -1 -0
    outer loop
      vertex 1.2 16.1 1.2
      vertex 18.6 16.1 1.2
      vertex 1.2 16.1 4
    endloop
  endfacet
  facet normal 1 0 0
    outer loop
      vertex 1.2 16.1 1.2
      vertex 1.2 16.1 4
      vertex 1.2 1.2 4
    endloop
  endfacet
  facet normal 1 0 0
    outer loop
      vertex 1.2 1.2 1.2
      vertex 1.2 16.1 1.2
      vertex 1.2 1.2 4
    endloop
  endfacet
  facet normal -1 -0 -0
    outer loop
      vertex 2.4 0 4
      vertex 2.4 0 8
      vertex 2.4 0.006574 4
    endloop
  endfacet
  facet normal -1 0 -0
    outer loop
      vertex 2.4 0.006574 4
      vertex 2.4 0 8
      vertex 2.4 1.2 8
    endloop
  endfacet
  facet normal -1 -0 0
    outer loop
      vertex 2.4 0.006574 4
      vertex 2.4 1.2 8
      vertex 2.4 1.2 4
    endloop
  endfacet
  facet normal 0 0 1
    outer loop
      vertex 8.97295 12.0532 1.2
      vertex 18.6 16.1 1.2
      vertex 1.2 16.1 1.2
    endloop
  endfacet
  facet normal 0 0 1
    outer loop
      vertex 9.58641 12.1836 1.2
      vertex 10.2136 12.1836 1.2
      vertex 18.6 16.1 1.2
    endloop
  endfacet
  facet normal 0 0 1
    outer loop
      vertex 1.2 1.2 1.2
      vertex 6.9 9.2 1.2
      vertex 1.2 16.1 1.2
    endloop
  endfacet
  facet normal 0 0 1
    outer loop
      vertex 6.9 9.2 1.2
      vertex 6.96556 9.82373 1.2
      vertex 1.2 16.1 1.2
    endloop
  endfacet
  facet normal 0 0 1
    outer loop
      vertex 6.96556 9.82373 1.2
      vertex 7.15936 10.4202 1.2
      vertex 1.2 16.1 1.2
    endloop
  endfacet
  facet normal 0 0 1
    outer loop
      vertex 7.47295 10.9634 1.2
      vertex 7.89261 11.4294 1.2
      vertex 1.2 16.1 1.2
    endloop
  endfacet
  facet normal 0 0 1
    outer loop
      vertex 12.6406 10.4202 1.2
      vertex 12.8344 9.82373 1.2
      vertex 18.6 1.2 1.2
    endloop
  endfacet
  facet normal 0 0 1
    outer loop
      vertex 7.89261 11.4294 1.2
      vertex 8.4 11.7981 1.2
      vertex 1.2 16.1 1.2
    endloop
  endfacet
  facet normal 0 0 1
    outer loop
      vertex 8.4 11.7981 1.2
      vertex 8.97295 12.0532 1.2
      vertex 1.2 16.1 1.2
    endloop
  endfacet
  facet normal 0 -0 1
    outer loop
      vertex 12.9 9.2 1.2
      vertex 12.8344 8.57626 1.2
      vertex 18.6 1.2 1.2
    endloop
  endfacet
  facet normal 0 0 1
    outer loop
      vertex 10.8271 12.0532 1.2
      vertex 18.6 16.1 1.2
      vertex 10.2136 12.1836 1.2
    endloop
  endfacet
  facet normal 0 -0 1
    outer loop
      vertex 12.3271 7.43664 1.2
      vertex 11.9074 6.97057 1.2
      vertex 18.6 1.2 1.2
    endloop
  endfacet
  facet normal 0 0 1
    outer loop
      vertex 11.4 11.7981 1.2
      vertex 18.6 16.1 1.2
      vertex 10.8271 12.0532 1.2
    endloop
  endfacet
  facet normal 0 0 1
    outer loop
      vertex 11.9074 11.4294 1.2
      vertex 18.6 16.1 1.2
      vertex 11.4 11.7981 1.2
    endloop
  endfacet
  facet normal 0 0 1
    outer loop
      vertex 12.3271 10.9634 1.2
      vertex 18.6 16.1 1.2
      vertex 11.9074 11.4294 1.2
    endloop
  endfacet
  facet normal 0 0 1
    outer loop
      vertex 18.6 1.2 1.2
      vertex 18.6 16.1 1.2
      vertex 12.3271 10.9634 1.2
    endloop
  endfacet
  facet normal 0 0 1
    outer loop
      vertex 12.8344 9.82373 1.2
      vertex 12.9 9.2 1.2
      vertex 18.6 1.2 1.2
    endloop
  endfacet
  facet normal 0 0 1
    outer loop
      vertex 18.6 1.2 1.2
      vertex 12.3271 10.9634 1.2
      vertex 12.6406 10.4202 1.2
    endloop
  endfacet
  facet normal 0 -0 1
    outer loop
      vertex 11.4 6.60192 1.2
      vertex 10.8271 6.34683 1.2
      vertex 18.6 1.2 1.2
    endloop
  endfacet
  facet normal 0 0 1
    outer loop
      vertex 18.6 1.2 1.2
      vertex 12.8344 8.57626 1.2
      vertex 12.6406 7.97979 1.2
    endloop
  endfacet
  facet normal 0 -0 1
    outer loop
      vertex 11.9074 6.97057 1.2
      vertex 11.4 6.60192 1.2
      vertex 18.6 1.2 1.2
    endloop
  endfacet
  facet normal 0 0 1
    outer loop
      vertex 18.6 1.2 1.2
      vertex 12.6406 7.97979 1.2
      vertex 12.3271 7.43664 1.2
    endloop
  endfacet
  facet normal 0 0 1
    outer loop
      vertex 8.97295 12.0532 1.2
      vertex 9.58641 12.1836 1.2
      vertex 18.6 16.1 1.2
    endloop
  endfacet
  facet normal 0 0 1
    outer loop
      vertex 1.2 1.2 1.2
      vertex 18.6 1.2 1.2
      vertex 10.8271 6.34683 1.2
    endloop
  endfacet
  facet normal 0 0 1
    outer loop
      vertex 1.2 1.2 1.2
      vertex 10.8271 6.34683 1.2
      vertex 10.2136 6.21643 1.2
    endloop
  endfacet
  facet normal 0 0 1
    outer loop
      vertex 1.2 1.2 1.2
      vertex 10.2136 6.21643 1.2
      vertex 9.58641 6.21643 1.2
    endloop
  endfacet
  facet normal 0 0 1
    outer loop
      vertex 1.2 1.2 1.2
      vertex 9.58641 6.21643 1.2
      vertex 8.97295 6.34683 1.2
    endloop
  endfacet
  facet normal 0 0 1
    outer loop
      vertex 1.2 1.2 1.2
      vertex 8.97295 6.34683 1.2
      vertex 8.4 6.60192 1.2
    endloop
  endfacet
  facet normal 0 0 1
    outer loop
      vertex 1.2 1.2 1.2
      vertex 8.4 6.60192 1.2
      vertex 7.89261 6.97057 1.2
    endloop
  endfacet
  facet normal 0 0 1
    outer loop
      vertex 1.2 1.2 1.2
      vertex 7.89261 6.97057 1.2
      vertex 7.47295 7.43664 1.2
    endloop
  endfacet
  facet normal 0 0 1
    outer loop
      vertex 1.2 1.2 1.2
      vertex 7.47295 7.43664 1.2
      vertex 7.15936 7.97979 1.2
    endloop
  endfacet
  facet normal 0 0 1
    outer loop
      vertex 1.2 1.2 1.2
      vertex 6.96556 8.57626 1.2
      vertex 6.9 9.2 1.2
    endloop
  endfacet
  facet normal 0 0 1
    outer loop
      vertex 1.2 1.2 1.2
      vertex 7.15936 7.97979 1.2
      vertex 6.96556 8.57626 1.2
    endloop
  endfacet
  facet normal 0 0 1
    outer loop
      vertex 7.15936 10.4202 1.2
      vertex 7.47295 10.9634 1.2
      vertex 1.2 16.1 1.2
    endloop
  endfacet
  facet normal 0 1 0
    outer loop
      vertex 2.4 17.3 4
      vertex 2.4 17.3 8
      vertex 17.4 17.3 4
    endloop
  endfacet
  facet normal 0 1 0
    outer loop
      vertex 17.4 17.3 4
      vertex 2.4 17.3 8
      vertex 17.4 17.3 8
    endloop
  endfacet
  facet normal 0 -0 1
    outer loop
      vertex 2.4 17.3 8
      vertex 2.4 16.1 8
      vertex 17.4 16.1 8
    endloop
  endfacet
  facet normal 0 0 1
    outer loop
      vertex 17.4 17.3 8
      vertex 2.4 17.3 8
      vertex 17.4 16.1 8
    endloop
  endfacet
  facet normal 0 -1 0
    outer loop
      vertex 2.4 0 8
      vertex 2.4 0 4
      vertex 17.4 0 4
    endloop
  endfacet
  facet normal 0 -1 0
    outer loop
      vertex 17.4 0 8
      vertex 2.4 0 8
      vertex 17.4 0 4
    endloop
  endfacet
  facet normal 0 -0 1
    outer loop
      vertex 2.4 1.2 8
      vertex 2.4 0 8
      vertex 17.4 0 8
    endloop
  endfacet
  facet normal 0 0 1
    outer loop
      vertex 17.4 1.2 8
      vertex 2.4 1.2 8
      vertex 17.4 0 8
    endloop
  endfacet
endsolid OpenSCAD_Model
