solid OpenSCAD_Model
  facet normal -1 -0 -0
    outer loop
      vertex 0 0 0
      vertex 0 0 1.2
      vertex 0 19.9 0
    endloop
  endfacet
  facet normal -1 0 0
    outer loop
      vertex 0 19.9 0
      vertex 0 0 1.2
      vertex 0 19.9 1.2
    endloop
  endfacet
  facet normal 0 -1 0
    outer loop
      vertex 0 0 1.2
      vertex 0 0 0
      vertex 22.4 0 0
    endloop
  endfacet
  facet normal 0 -1 0
    outer loop
      vertex 22.4 0 1.2
      vertex 0 0 1.2
      vertex 22.4 0 0
    endloop
  endfacet
  facet normal 0 -0 -1
    outer loop
      vertex 12.7 11.7981 0
      vertex 0 19.9 0
      vertex 22.4 19.9 0
    endloop
  endfacet
  facet normal 0 -0 -1
    outer loop
      vertex 0 0 0
      vertex 0 19.9 0
      vertex 8.2 9.2 0
    endloop
  endfacet
  facet normal 0 0 -1
    outer loop
      vertex 0 0 0
      vertex 8.2 9.2 0
      vertex 8.26556 8.57626 0
    endloop
  endfacet
  facet normal 0 0 -1
    outer loop
      vertex 0 0 0
      vertex 8.26556 8.57626 0
      vertex 8.45936 7.97979 0
    endloop
  endfacet
  facet normal 0 0 -1
    outer loop
      vertex 0 0 0
      vertex 8.45936 7.97979 0
      vertex 8.77295 7.43664 0
    endloop
  endfacet
  facet normal 0 0 -1
    outer loop
      vertex 0 0 0
      vertex 8.77295 7.43664 0
      vertex 9.19261 6.97057 0
    endloop
  endfacet
  facet normal 0 0 -1
    outer loop
      vertex 0 0 0
      vertex 9.19261 6.97057 0
      vertex 9.7 6.60192 0
    endloop
  endfacet
  facet normal -0 0 -1
    outer loop
      vertex 0 0 0
      vertex 9.7 6.60192 0
      vertex 22.4 0 0
    endloop
  endfacet
  facet normal 0 0 -1
    outer loop
      vertex 9.7 6.60192 0
      vertex 10.2729 6.34683 0
      vertex 22.4 0 0
    endloop
  endfacet
  facet normal 0 0 -1
    outer loop
      vertex 11.5136 6.21643 0
      vertex 22.4 0 0
      vertex 10.8864 6.21643 0
    endloop
  endfacet
  facet normal 0 0 -1
    outer loop
      vertex 12.1271 6.34683 0
      vertex 22.4 0 0
      vertex 11.5136 6.21643 0
    endloop
  endfacet
  facet normal 0 0 -1
    outer loop
      vertex 12.7 6.60192 0
      vertex 22.4 0 0
      vertex 12.1271 6.34683 0
    endloop
  endfacet
  facet normal 0 0 -1
    outer loop
      vertex 13.9406 7.97979 0
      vertex 22.4 0 0
      vertex 13.6271 7.43664 0
    endloop
  endfacet
  facet normal 0 -0 -1
    outer loop
      vertex 8.45936 10.4202 0
      vertex 0 19.9 0
      vertex 8.77295 10.9634 0
    endloop
  endfacet
  facet normal -0 0 -1
    outer loop
      vertex 12.7 6.60192 0
      vertex 13.2074 6.97057 0
      vertex 22.4 0 0
    endloop
  endfacet
  facet normal 0 -0 -1
    outer loop
      vertex 8.77295 10.9634 0
      vertex 0 19.9 0
      vertex 9.19261 11.4294 0
    endloop
  endfacet
  facet normal -0 0 -1
    outer loop
      vertex 13.2074 6.97057 0
      vertex 13.6271 7.43664 0
      vertex 22.4 0 0
    endloop
  endfacet
  facet normal -0 -0 -1
    outer loop
      vertex 12.1271 12.0532 0
      vertex 0 19.9 0
      vertex 12.7 11.7981 0
    endloop
  endfacet
  facet normal 0 0 -1
    outer loop
      vertex 22.4 0 0
      vertex 13.9406 7.97979 0
      vertex 22.4 19.9 0
    endloop
  endfacet
  facet normal 0 -0 -1
    outer loop
      vertex 9.19261 11.4294 0
      vertex 0 19.9 0
      vertex 9.7 11.7981 0
    endloop
  endfacet
  facet normal 0 0 -1
    outer loop
      vertex 13.9406 7.97979 0
      vertex 14.1344 8.57626 0
      vertex 22.4 19.9 0
    endloop
  endfacet
  facet normal 0 -0 -1
    outer loop
      vertex 9.7 11.7981 0
      vertex 0 19.9 0
      vertex 10.2729 12.0532 0
    endloop
  endfacet
  facet normal 0 0 -1
    outer loop
      vertex 14.1344 8.57626 0
      vertex 14.2 9.2 0
      vertex 22.4 19.9 0
    endloop
  endfacet
  facet normal 0 -0 -1
    outer loop
      vertex 14.2 9.2 0
      vertex 14.1344 9.82373 0
      vertex 22.4 19.9 0
    endloop
  endfacet
  facet normal 0 -0 -1
    outer loop
      vertex 10.2729 12.0532 0
      vertex 0 19.9 0
      vertex 10.8864 12.1836 0
    endloop
  endfacet
  facet normal 0 -0 -1
    outer loop
      vertex 14.1344 9.82373 0
      vertex 13.9406 10.4202 0
      vertex 22.4 19.9 0
    endloop
  endfacet
  facet normal -0 -0 -1
    outer loop
      vertex 10.8864 12.1836 0
      vertex 0 19.9 0
      vertex 11.5136 12.1836 0
    endloop
  endfacet
  facet normal 0 -0 -1
    outer loop
      vertex 13.9406 10.4202 0
      vertex 13.6271 10.9634 0
      vertex 22.4 19.9 0
    endloop
  endfacet
  facet normal -0 -0 -1
    outer loop
      vertex 11.5136 12.1836 0
      vertex 0 19.9 0
      vertex 12.1271 12.0532 0
    endloop
  endfacet
  facet normal 0 -0 -1
    outer loop
      vertex 13.6271 10.9634 0
      vertex 13.2074 11.4294 0
      vertex 22.4 19.9 0
    endloop
  endfacet
  facet normal 0 -0 -1
    outer loop
      vertex 13.2074 11.4294 0
      vertex 12.7 11.7981 0
      vertex 22.4 19.9 0
    endloop
  endfacet
  facet normal 0 -0 -1
    outer loop
      vertex 8.26556 9.82373 0
      vertex 0 19.9 0
      vertex 8.45936 10.4202 0
    endloop
  endfacet
  facet normal 0 -0 -1
    outer loop
      vertex 8.2 9.2 0
      vertex 0 19.9 0
      vertex 8.26556 9.82373 0
    endloop
  endfacet
  facet normal 0 0 -1
    outer loop
      vertex 10.8864 6.21643 0
      vertex 22.4 0 0
      vertex 10.2729 6.34683 0
    endloop
  endfacet
  facet normal 0 1 0
    outer loop
      vertex 0 19.9 0
      vertex 0 19.9 1.2
      vertex 22.4 19.9 0
    endloop
  endfacet
  facet normal 0 1 0
    outer loop
      vertex 22.4 19.9 0
      vertex 0 19.9 1.2
      vertex 22.4 19.9 1.2
    endloop
  endfacet
  facet normal 0 -0 1
    outer loop
      vertex 1.3 1.3 1.2
      vertex 0 0 1.2
      vertex 22.4 0 1.2
    endloop
  endfacet
  facet normal 0 -0 1
    outer loop
      vertex 0 19.9 1.2
      vertex 0 0 1.2
      vertex 1.3 1.3 1.2
    endloop
  endfacet
  facet normal 0 0 1
    outer loop
      vertex 1.3 18.6 1.2
      vertex 21.1 18.6 1.2
      vertex 0 19.9 1.2
    endloop
  endfacet
  facet normal 0 0 1
    outer loop
      vertex 0 19.9 1.2
      vertex 1.3 1.3 1.2
      vertex 1.3 18.6 1.2
    endloop
  endfacet
  facet normal 0 0 1
    outer loop
      vertex 22.4 19.9 1.2
      vertex 21.1 18.6 1.2
      vertex 22.4 0 1.2
    endloop
  endfacet
  facet normal 0 0 1
    outer loop
      vertex 22.4 19.9 1.2
      vertex 0 19.9 1.2
      vertex 21.1 18.6 1.2
    endloop
  endfacet
  facet normal 0 -0 1
    outer loop
      vertex 21.1 18.6 1.2
      vertex 21.1 1.3 1.2
      vertex 22.4 0 1.2
    endloop
  endfacet
  facet normal 0 -0 1
    outer loop
      vertex 21.1 1.3 1.2
      vertex 1.3 1.3 1.2
      vertex 22.4 0 1.2
    endloop
  endfacet
  facet normal 1 0 -0
    outer loop
      vertex 22.4 0 1.2
      vertex 22.4 0 0
      vertex 22.4 19.9 0
    endloop
  endfacet
  facet normal 1 0 0
    outer loop
      vertex 22.4 19.9 1.2
      vertex 22.4 0 1.2
      vertex 22.4 19.9 0
    endloop
  endfacet
  facet normal 0.994522 -0.104528 0
    outer loop
      vertex 8.26556 9.82373 0
      vertex 8.26556 9.82373 1.2
      vertex 8.2 9.2 1.2
    endloop
  endfacet
  facet normal 0.994522 -0.104528 0
    outer loop
      vertex 8.2 9.2 0
      vertex 8.26556 9.82373 0
      vertex 8.2 9.2 1.2
    endloop
  endfacet
  facet normal 0.994522 0.104528 0
    outer loop
      vertex 8.2 9.2 1.2
      vertex 8.26556 8.57626 1.2
      vertex 8.26556 8.57626 0
    endloop
  endfacet
  facet normal 0.994522 0.104528 0
    outer loop
      vertex 8.2 9.2 0
      vertex 8.2 9.2 1.2
      vertex 8.26556 8.57626 0
    endloop
  endfacet
  facet normal 0.951056 -0.309018 0
    outer loop
      vertex 8.45936 10.4202 0
      vertex 8.45936 10.4202 1.2
      vertex 8.26556 9.82373 1.2
    endloop
  endfacet
  facet normal 0.951056 -0.309018 0
    outer loop
      vertex 8.26556 9.82373 0
      vertex 8.45936 10.4202 0
      vertex 8.26556 9.82373 1.2
    endloop
  endfacet
  facet normal 0.866026 -0.499999 0
    outer loop
      vertex 8.77295 10.9634 0
      vertex 8.77295 10.9634 1.2
      vertex 8.45936 10.4202 1.2
    endloop
  endfacet
  facet normal 0.866026 -0.499999 0
    outer loop
      vertex 8.45936 10.4202 0
      vertex 8.77295 10.9634 0
      vertex 8.45936 10.4202 1.2
    endloop
  endfacet
  facet normal 0.743144 -0.669131 0
    outer loop
      vertex 9.19261 11.4294 0
      vertex 9.19261 11.4294 1.2
      vertex 8.77295 10.9634 1.2
    endloop
  endfacet
  facet normal 0.743144 -0.669131 0
    outer loop
      vertex 8.77295 10.9634 0
      vertex 9.19261 11.4294 0
      vertex 8.77295 10.9634 1.2
    endloop
  endfacet
  facet normal 0.587785 -0.809017 0
    outer loop
      vertex 9.7 11.7981 0
      vertex 9.7 11.7981 1.2
      vertex 9.19261 11.4294 1.2
    endloop
  endfacet
  facet normal 0.587785 -0.809017 0
    outer loop
      vertex 9.19261 11.4294 0
      vertex 9.7 11.7981 0
      vertex 9.19261 11.4294 1.2
    endloop
  endfacet
  facet normal 0.406738 -0.913545 0
    outer loop
      vertex 10.2729 12.0532 0
      vertex 10.2729 12.0532 1.2
      vertex 9.7 11.7981 1.2
    endloop
  endfacet
  facet normal 0.406738 -0.913545 0
    outer loop
      vertex 9.7 11.7981 0
      vertex 10.2729 12.0532 0
      vertex 9.7 11.7981 1.2
    endloop
  endfacet
  facet normal 0.207911 -0.978148 0
    outer loop
      vertex 10.8864 12.1836 0
      vertex 10.8864 12.1836 1.2
      vertex 10.2729 12.0532 1.2
    endloop
  endfacet
  facet normal 0.207911 -0.978148 0
    outer loop
      vertex 10.2729 12.0532 0
      vertex 10.8864 12.1836 0
      vertex 10.2729 12.0532 1.2
    endloop
  endfacet
  facet normal 0 -1 0
    outer loop
      vertex 11.5136 12.1836 0
      vertex 11.5136 12.1836 1.2
      vertex 10.8864 12.1836 1.2
    endloop
  endfacet
  facet normal -0 -1 -0
    outer loop
      vertex 10.8864 12.1836 0
      vertex 11.5136 12.1836 0
      vertex 10.8864 12.1836 1.2
    endloop
  endfacet
  facet normal -0.207911 -0.978148 -0
    outer loop
      vertex 12.1271 12.0532 0
      vertex 12.1271 12.0532 1.2
      vertex 11.5136 12.1836 1.2
    endloop
  endfacet
  facet normal -0.207911 -0.978148 -0
    outer loop
      vertex 11.5136 12.1836 0
      vertex 12.1271 12.0532 0
      vertex 11.5136 12.1836 1.2
    endloop
  endfacet
  facet normal -0.406738 -0.913545 -0
    outer loop
      vertex 12.7 11.7981 0
      vertex 12.7 11.7981 1.2
      vertex 12.1271 12.0532 1.2
    endloop
  endfacet
  facet normal -0.406738 -0.913545 -0
    outer loop
      vertex 12.1271 12.0532 0
      vertex 12.7 11.7981 0
      vertex 12.1271 12.0532 1.2
    endloop
  endfacet
  facet normal -0.587785 -0.809017 -0
    outer loop
      vertex 13.2074 11.4294 0
      vertex 13.2074 11.4294 1.2
      vertex 12.7 11.7981 1.2
    endloop
  endfacet
  facet normal -0.587785 -0.809017 -0
    outer loop
      vertex 12.7 11.7981 0
      vertex 13.2074 11.4294 0
      vertex 12.7 11.7981 1.2
    endloop
  endfacet
  facet normal -0.743144 -0.669131 0
    outer loop
      vertex 13.6271 10.9634 1.2
      vertex 13.2074 11.4294 1.2
      vertex 13.6271 10.9634 0
    endloop
  endfacet
  facet normal -0.743144 -0.669131 0
    outer loop
      vertex 13.6271 10.9634 0
      vertex 13.2074 11.4294 1.2
      vertex 13.2074 11.4294 0
    endloop
  endfacet
  facet normal -0.866026 -0.499999 0
    outer loop
      vertex 13.9406 10.4202 1.2
      vertex 13.6271 10.9634 1.2
      vertex 13.9406 10.4202 0
    endloop
  endfacet
  facet normal -0.866026 -0.499999 0
    outer loop
      vertex 13.9406 10.4202 0
      vertex 13.6271 10.9634 1.2
      vertex 13.6271 10.9634 0
    endloop
  endfacet
  facet normal -0.951056 -0.309018 0
    outer loop
      vertex 14.1344 9.82373 1.2
      vertex 13.9406 10.4202 1.2
      vertex 14.1344 9.82373 0
    endloop
  endfacet
  facet normal -0.951056 -0.309018 0
    outer loop
      vertex 14.1344 9.82373 0
      vertex 13.9406 10.4202 1.2
      vertex 13.9406 10.4202 0
    endloop
  endfacet
  facet normal -0.994522 -0.104528 0
    outer loop
      vertex 14.2 9.2 1.2
      vertex 14.1344 9.82373 1.2
      vertex 14.2 9.2 0
    endloop
  endfacet
  facet normal -0.994522 -0.104528 0
    outer loop
      vertex 14.2 9.2 0
      vertex 14.1344 9.82373 1.2
      vertex 14.1344 9.82373 0
    endloop
  endfacet
  facet normal -0.994522 0.104528 0
    outer loop
      vertex 14.2 9.2 1.2
      vertex 14.2 9.2 0
      vertex 14.1344 8.57626 1.2
    endloop
  endfacet
  facet normal -0.994522 0.104528 0
    outer loop
      vertex 14.1344 8.57626 1.2
      vertex 14.2 9.2 0
      vertex 14.1344 8.57626 0
    endloop
  endfacet
  facet normal -0.951056 0.309018 0
    outer loop
      vertex 14.1344 8.57626 1.2
      vertex 14.1344 8.57626 0
      vertex 13.9406 7.97979 1.2
    endloop
  endfacet
  facet normal -0.951056 0.309018 0
    outer loop
      vertex 13.9406 7.97979 1.2
      vertex 14.1344 8.57626 0
      vertex 13.9406 7.97979 0
    endloop
  endfacet
  facet normal -0.866026 0.499999 0
    outer loop
      vertex 13.9406 7.97979 1.2
      vertex 13.9406 7.97979 0
      vertex 13.6271 7.43664 1.2
    endloop
  endfacet
  facet normal -0.866026 0.499999 0
    outer loop
      vertex 13.6271 7.43664 1.2
      vertex 13.9406 7.97979 0
      vertex 13.6271 7.43664 0
    endloop
  endfacet
  facet normal -0.743144 0.669131 0
    outer loop
      vertex 13.6271 7.43664 1.2
      vertex 13.6271 7.43664 0
      vertex 13.2074 6.97057 1.2
    endloop
  endfacet
  facet normal -0.743144 0.669131 0
    outer loop
      vertex 13.2074 6.97057 1.2
      vertex 13.6271 7.43664 0
      vertex 13.2074 6.97057 0
    endloop
  endfacet
  facet normal -0.587785 0.809017 0
    outer loop
      vertex 13.2074 6.97057 1.2
      vertex 13.2074 6.97057 0
      vertex 12.7 6.60192 1.2
    endloop
  endfacet
  facet normal -0.587785 0.809017 0
    outer loop
      vertex 12.7 6.60192 1.2
      vertex 13.2074 6.97057 0
      vertex 12.7 6.60192 0
    endloop
  endfacet
  facet normal -0.406738 0.913545 0
    outer loop
      vertex 12.7 6.60192 1.2
      vertex 12.7 6.60192 0
      vertex 12.1271 6.34683 1.2
    endloop
  endfacet
  facet normal -0.406738 0.913545 0
    outer loop
      vertex 12.1271 6.34683 1.2
      vertex 12.7 6.60192 0
      vertex 12.1271 6.34683 0
    endloop
  endfacet
  facet normal -0.207911 0.978148 0
    outer loop
      vertex 12.1271 6.34683 1.2
      vertex 12.1271 6.34683 0
      vertex 11.5136 6.21643 1.2
    endloop
  endfacet
  facet normal -0.207911 0.978148 0
    outer loop
      vertex 11.5136 6.21643 1.2
      vertex 12.1271 6.34683 0
      vertex 11.5136 6.21643 0
    endloop
  endfacet
  facet normal 0 1 0
    outer loop
      vertex 11.5136 6.21643 1.2
      vertex 11.5136 6.21643 0
      vertex 10.8864 6.21643 1.2
    endloop
  endfacet
  facet normal 0 1 -0
    outer loop
      vertex 10.8864 6.21643 1.2
      vertex 11.5136 6.21643 0
      vertex 10.8864 6.21643 0
    endloop
  endfacet
  facet normal 0.207911 0.978148 -0
    outer loop
      vertex 10.8864 6.21643 1.2
      vertex 10.8864 6.21643 0
      vertex 10.2729 6.34683 1.2
    endloop
  endfacet
  facet normal 0.207911 0.978148 -0
    outer loop
      vertex 10.2729 6.34683 1.2
      vertex 10.8864 6.21643 0
      vertex 10.2729 6.34683 0
    endloop
  endfacet
  facet normal 0.406738 0.913545 -0
    outer loop
      vertex 10.2729 6.34683 1.2
      vertex 10.2729 6.34683 0
      vertex 9.7 6.60192 1.2
    endloop
  endfacet
  facet normal 0.406738 0.913545 -0
    outer loop
      vertex 9.7 6.60192 1.2
      vertex 10.2729 6.34683 0
      vertex 9.7 6.60192 0
    endloop
  endfacet
  facet normal 0.587785 0.809017 -0
    outer loop
      vertex 9.7 6.60192 1.2
      vertex 9.7 6.60192 0
      vertex 9.19261 6.97057 1.2
    endloop
  endfacet
  facet normal 0.587785 0.809017 -0
    outer loop
      vertex 9.19261 6.97057 1.2
      vertex 9.7 6.60192 0
      vertex 9.19261 6.97057 0
    endloop
  endfacet
  facet normal 0.743144 0.669131 0
    outer loop
      vertex 8.77295 7.43664 1.2
      vertex 9.19261 6.97057 1.2
      vertex 9.19261 6.97057 0
    endloop
  endfacet
  facet normal 0.743144 0.669131 0
    outer loop
      vertex 8.77295 7.43664 0
      vertex 8.77295 7.43664 1.2
      vertex 9.19261 6.97057 0
    endloop
  endfacet
  facet normal 0.866026 0.499999 0
    outer loop
      vertex 8.45936 7.97979 1.2
      vertex 8.77295 7.43664 1.2
      vertex 8.77295 7.43664 0
    endloop
  endfacet
  facet normal 0.866026 0.499999 0
    outer loop
      vertex 8.45936 7.97979 0
      vertex 8.45936 7.97979 1.2
      vertex 8.77295 7.43664 0
    endloop
  endfacet
  facet normal 0.951056 0.309018 0
    outer loop
      vertex 8.26556 8.57626 1.2
      vertex 8.45936 7.97979 1.2
      vertex 8.45936 7.97979 0
    endloop
  endfacet
  facet normal 0.951056 0.309018 0
    outer loop
      vertex 8.26556 8.57626 0
      vertex 8.26556 8.57626 1.2
      vertex 8.45936 7.97979 0
    endloop
  endfacet
  facet normal -1 -0 -0
    outer loop
      vertex 1.3 1.3 1.2
      vertex 1.3 1.3 3.2
      vertex 1.3 18.6 1.2
    endloop
  endfacet
  facet normal -1 0 0
    outer loop
      vertex 1.3 18.6 1.2
      vertex 1.3 1.3 3.2
      vertex 1.3 18.6 3.2
    endloop
  endfacet
  facet normal 0 -1 0
    outer loop
      vertex 1.3 1.3 3.2
      vertex 1.3 1.3 1.2
      vertex 21.1 1.3 1.2
    endloop
  endfacet
  facet normal 0 -1 0
    outer loop
      vertex 21.1 1.3 3.2
      vertex 1.3 1.3 3.2
      vertex 21.1 1.3 1.2
    endloop
  endfacet
  facet normal 1 0 -0
    outer loop
      vertex 21.1 1.3 3.2
      vertex 21.1 1.3 1.2
      vertex 21.1 18.6 1.2
    endloop
  endfacet
  facet normal 1 0 0
    outer loop
      vertex 21.1 18.6 3.2
      vertex 21.1 1.3 3.2
      vertex 21.1 18.6 1.2
    endloop
  endfacet
  facet normal 0 1 0
    outer loop
      vertex 1.3 18.6 1.2
      vertex 1.3 18.6 3.2
      vertex 21.1 18.6 1.2
    endloop
  endfacet
  facet normal 0 1 0
    outer loop
      vertex 21.1 18.6 1.2
      vertex 1.3 18.6 3.2
      vertex 21.1 18.6 3.2
    endloop
  endfacet
  facet normal 0 0 1
    outer loop
      vertex 9.7 11.7981 1.2
      vertex 19.9 17.4 1.2
      vertex 2.5 17.4 1.2
    endloop
  endfacet
  facet normal 0 0 1
    outer loop
      vertex 13.6271 10.9634 1.2
      vertex 13.9406 10.4202 1.2
      vertex 19.9 2.5 1.2
    endloop
  endfacet
  facet normal 0 0 1
    outer loop
      vertex 2.5 2.5 1.2
      vertex 8.2 9.2 1.2
      vertex 2.5 17.4 1.2
    endloop
  endfacet
  facet normal 0 0 1
    outer loop
      vertex 8.2 9.2 1.2
      vertex 8.26556 9.82373 1.2
      vertex 2.5 17.4 1.2
    endloop
  endfacet
  facet normal 0 0 1
    outer loop
      vertex 12.1271 6.34683 1.2
      vertex 11.5136 6.21643 1.2
      vertex 2.5 2.5 1.2
    endloop
  endfacet
  facet normal 0 0 1
    outer loop
      vertex 8.26556 9.82373 1.2
      vertex 8.45936 10.4202 1.2
      vertex 2.5 17.4 1.2
    endloop
  endfacet
  facet normal 0 0 1
    outer loop
      vertex 8.45936 10.4202 1.2
      vertex 8.77295 10.9634 1.2
      vertex 2.5 17.4 1.2
    endloop
  endfacet
  facet normal 0 0 1
    outer loop
      vertex 8.77295 10.9634 1.2
      vertex 9.19261 11.4294 1.2
      vertex 2.5 17.4 1.2
    endloop
  endfacet
  facet normal -0 0 1
    outer loop
      vertex 10.2729 12.0532 1.2
      vertex 19.9 17.4 1.2
      vertex 9.7 11.7981 1.2
    endloop
  endfacet
  facet normal -0 0 1
    outer loop
      vertex 10.8864 12.1836 1.2
      vertex 19.9 17.4 1.2
      vertex 10.2729 12.0532 1.2
    endloop
  endfacet
  facet normal -0 0 1
    outer loop
      vertex 11.5136 12.1836 1.2
      vertex 19.9 17.4 1.2
      vertex 10.8864 12.1836 1.2
    endloop
  endfacet
  facet normal 0 -0 1
    outer loop
      vertex 14.1344 8.57626 1.2
      vertex 13.9406 7.97979 1.2
      vertex 19.9 2.5 1.2
    endloop
  endfacet
  facet normal 0 0 1
    outer loop
      vertex 12.1271 12.0532 1.2
      vertex 19.9 17.4 1.2
      vertex 11.5136 12.1836 1.2
    endloop
  endfacet
  facet normal 0 0 1
    outer loop
      vertex 12.7 11.7981 1.2
      vertex 19.9 17.4 1.2
      vertex 12.1271 12.0532 1.2
    endloop
  endfacet
  facet normal 0 0 1
    outer loop
      vertex 13.2074 11.4294 1.2
      vertex 19.9 17.4 1.2
      vertex 12.7 11.7981 1.2
    endloop
  endfacet
  facet normal 0 0 1
    outer loop
      vertex 13.6271 10.9634 1.2
      vertex 19.9 17.4 1.2
      vertex 13.2074 11.4294 1.2
    endloop
  endfacet
  facet normal 0 0 1
    outer loop
      vertex 13.9406 10.4202 1.2
      vertex 14.1344 9.82373 1.2
      vertex 19.9 2.5 1.2
    endloop
  endfacet
  facet normal 0 0 1
    outer loop
      vertex 19.9 2.5 1.2
      vertex 19.9 17.4 1.2
      vertex 13.6271 10.9634 1.2
    endloop
  endfacet
  facet normal 0 0 1
    outer loop
      vertex 14.1344 9.82373 1.2
      vertex 14.2 9.2 1.2
      vertex 19.9 2.5 1.2
    endloop
  endfacet
  facet normal 0 -0 1
    outer loop
      vertex 13.9406 7.97979 1.2
      vertex 13.6271 7.43664 1.2
      vertex 19.9 2.5 1.2
    endloop
  endfacet
  facet normal 0 -0 1
    outer loop
      vertex 13.6271 7.43664 1.2
      vertex 13.2074 6.97057 1.2
      vertex 19.9 2.5 1.2
    endloop
  endfacet
  facet normal 0 -0 1
    outer loop
      vertex 13.2074 6.97057 1.2
      vertex 12.7 6.60192 1.2
      vertex 19.9 2.5 1.2
    endloop
  endfacet
  facet normal 0 0 1
    outer loop
      vertex 12.1271 6.34683 1.2
      vertex 19.9 2.5 1.2
      vertex 12.7 6.60192 1.2
    endloop
  endfacet
  facet normal 0 0 1
    outer loop
      vertex 2.5 2.5 1.2
      vertex 19.9 2.5 1.2
      vertex 12.1271 6.34683 1.2
    endloop
  endfacet
  facet normal 0 0 1
    outer loop
      vertex 2.5 2.5 1.2
      vertex 11.5136 6.21643 1.2
      vertex 10.8864 6.21643 1.2
    endloop
  endfacet
  facet normal 0 0 1
    outer loop
      vertex 2.5 2.5 1.2
      vertex 10.8864 6.21643 1.2
      vertex 10.2729 6.34683 1.2
    endloop
  endfacet
  facet normal 0 0 1
    outer loop
      vertex 2.5 2.5 1.2
      vertex 10.2729 6.34683 1.2
      vertex 9.7 6.60192 1.2
    endloop
  endfacet
  facet normal 0 0 1
    outer loop
      vertex 2.5 2.5 1.2
      vertex 9.7 6.60192 1.2
      vertex 9.19261 6.97057 1.2
    endloop
  endfacet
  facet normal 0 0 1
    outer loop
      vertex 2.5 2.5 1.2
      vertex 9.19261 6.97057 1.2
      vertex 8.77295 7.43664 1.2
    endloop
  endfacet
  facet normal 0 0 1
    outer loop
      vertex 2.5 2.5 1.2
      vertex 8.77295 7.43664 1.2
      vertex 8.45936 7.97979 1.2
    endloop
  endfacet
  facet normal 0 0 1
    outer loop
      vertex 2.5 2.5 1.2
      vertex 8.26556 8.57626 1.2
      vertex 8.2 9.2 1.2
    endloop
  endfacet
  facet normal 0 0 1
    outer loop
      vertex 2.5 2.5 1.2
      vertex 8.45936 7.97979 1.2
      vertex 8.26556 8.57626 1.2
    endloop
  endfacet
  facet normal 0 0 1
    outer loop
      vertex 9.19261 11.4294 1.2
      vertex 9.7 11.7981 1.2
      vertex 2.5 17.4 1.2
    endloop
  endfacet
  facet normal 0 -0 1
    outer loop
      vertex 14.2 9.2 1.2
      vertex 14.1344 8.57626 1.2
      vertex 19.9 2.5 1.2
    endloop
  endfacet
  facet normal 0 -0 1
    outer loop
      vertex 2.5 2.5 3.2
      vertex 1.3 1.3 3.2
      vertex 21.1 1.3 3.2
    endloop
  endfacet
  facet normal 0 -0 1
    outer loop
      vertex 1.3 18.6 3.2
      vertex 1.3 1.3 3.2
      vertex 2.5 2.5 3.2
    endloop
  endfacet
  facet normal 0 0 1
    outer loop
      vertex 2.5 17.4 3.2
      vertex 19.9 17.4 3.2
      vertex 1.3 18.6 3.2
    endloop
  endfacet
  facet normal 0 0 1
    outer loop
      vertex 1.3 18.6 3.2
      vertex 2.5 2.5 3.2
      vertex 2.5 17.4 3.2
    endloop
  endfacet
  facet normal 0 0 1
    outer loop
      vertex 21.1 18.6 3.2
      vertex 19.9 17.4 3.2
      vertex 21.1 1.3 3.2
    endloop
  endfacet
  facet normal 0 0 1
    outer loop
      vertex 21.1 18.6 3.2
      vertex 1.3 18.6 3.2
      vertex 19.9 17.4 3.2
    endloop
  endfacet
  facet normal 0 -0 1
    outer loop
      vertex 19.9 17.4 3.2
      vertex 19.9 2.5 3.2
      vertex 21.1 1.3 3.2
    endloop
  endfacet
  facet normal 0 -0 1
    outer loop
      vertex 19.9 2.5 3.2
      vertex 2.5 2.5 3.2
      vertex 21.1 1.3 3.2
    endloop
  endfacet
  facet normal -1 0 0
    outer loop
      vertex 19.9 17.4 3.2
      vertex 19.9 17.4 1.2
      vertex 19.9 2.5 3.2
    endloop
  endfacet
  facet normal -1 0 0
    outer loop
      vertex 19.9 2.5 3.2
      vertex 19.9 17.4 1.2
      vertex 19.9 2.5 1.2
    endloop
  endfacet
  facet normal 0 1 0
    outer loop
      vertex 19.9 2.5 3.2
      vertex 19.9 2.5 1.2
      vertex 2.5 2.5 3.2
    endloop
  endfacet
  facet normal 0 1 -0
    outer loop
      vertex 2.5 2.5 3.2
      vertex 19.9 2.5 1.2
      vertex 2.5 2.5 1.2
    endloop
  endfacet
  facet normal 1 0 0
    outer loop
      vertex 2.5 17.4 1.2
      vertex 2.5 17.4 3.2
      vertex 2.5 2.5 3.2
    endloop
  endfacet
  facet normal 1 0 0
    outer loop
      vertex 2.5 2.5 1.2
      vertex 2.5 17.4 1.2
      vertex 2.5 2.5 3.2
    endloop
  endfacet
  facet normal 0 -1 0
    outer loop
      vertex 19.9 17.4 1.2
      vertex 19.9 17.4 3.2
      vertex 2.5 17.4 3.2
    endloop
  endfacet
  facet normal -0 -1 -0
    outer loop
      vertex 2.5 17.4 1.2
      vertex 19.9 17.4 1.2
      vertex 2.5 17.4 3.2
    endloop
  endfacet
endsolid OpenSCAD_Model
