solid OpenSCAD_Model
  facet normal -1 -0 -0
    outer loop
      vertex 0 0 0
      vertex 0 0 10
      vertex 0 19.9 0
    endloop
  endfacet
  facet normal -1 0 0
    outer loop
      vertex 0 19.9 0
      vertex 0 0 10
      vertex 0 19.9 10
    endloop
  endfacet
  facet normal 0 -1 0
    outer loop
      vertex 0 0 10
      vertex 0 0 0
      vertex 22.4 0 0
    endloop
  endfacet
  facet normal 0 -1 0
    outer loop
      vertex 22.4 0 10
      vertex 0 0 10
      vertex 22.4 0 0
    endloop
  endfacet
  facet normal 0 -0 -1
    outer loop
      vertex 18.7 18.7 0
      vertex 0 19.9 0
      vertex 22.4 19.9 0
    endloop
  endfacet
  facet normal 0 -0 -1
    outer loop
      vertex 0 0 0
      vertex 0 19.9 0
      vertex 1.2 18.7 0
    endloop
  endfacet
  facet normal 0 0 -1
    outer loop
      vertex 0 0 0
      vertex 1.2 18.7 0
      vertex 1.2 15.2 0
    endloop
  endfacet
  facet normal 0 -0 -1
    outer loop
      vertex 20.7 10.7 0
      vertex 18.7 15.2 0
      vertex 22.4 19.9 0
    endloop
  endfacet
  facet normal 0 -0 -1
    outer loop
      vertex 18.7 15.2 0
      vertex 18.7 18.7 0
      vertex 22.4 19.9 0
    endloop
  endfacet
  facet normal 0 0 -1
    outer loop
      vertex 18.7 15.2 0
      vertex 17.2 10.7 0
      vertex 1.2 15.2 0
    endloop
  endfacet
  facet normal 0 0 -1
    outer loop
      vertex 17.2 1.2 0
      vertex 1.2 15.2 0
      vertex 17.2 10.7 0
    endloop
  endfacet
  facet normal 0 0 -1
    outer loop
      vertex 0 0 0
      vertex 1.2 15.2 0
      vertex 17.2 1.2 0
    endloop
  endfacet
  facet normal -0 0 -1
    outer loop
      vertex 0 0 0
      vertex 17.2 1.2 0
      vertex 22.4 0 0
    endloop
  endfacet
  facet normal 0 0 -1
    outer loop
      vertex 20.7 10.7 0
      vertex 22.4 0 0
      vertex 20.7 1.2 0
    endloop
  endfacet
  facet normal 0 0 -1
    outer loop
      vertex 17.2 1.2 0
      vertex 20.7 1.2 0
      vertex 22.4 0 0
    endloop
  endfacet
  facet normal 0 0 -1
    outer loop
      vertex 22.4 0 0
      vertex 20.7 10.7 0
      vertex 22.4 19.9 0
    endloop
  endfacet
  facet normal -0 -0 -1
    outer loop
      vertex 1.2 18.7 0
      vertex 0 19.9 0
      vertex 18.7 18.7 0
    endloop
  endfacet
  facet normal -0 0 -1
    outer loop
      vertex 17.2 10.7 0
      vertex 18.7 15.2 0
      vertex 20.7 10.7 0
    endloop
  endfacet
  facet normal 0 1 0
    outer loop
      vertex 0 19.9 0
      vertex 0 19.9 10
      vertex 22.4 19.9 0
    endloop
  endfacet
  facet normal 0 1 0
    outer loop
      vertex 22.4 19.9 0
      vertex 0 19.9 10
      vertex 22.4 19.9 10
    endloop
  endfacet
  facet normal 0 -0 1
    outer loop
      vertex 1.2 1.2 10
      vertex 0 0 10
      vertex 22.4 0 10
    endloop
  endfacet
  facet normal 0 -0 1
    outer loop
      vertex 0 19.9 10
      vertex 0 0 10
      vertex 1.2 1.2 10
    endloop
  endfacet
  facet normal 0 0 1
    outer loop
      vertex 1.2 18.7 10
      vertex 21.2 18.7 10
      vertex 0 19.9 10
    endloop
  endfacet
  facet normal 0 0 1
    outer loop
      vertex 0 19.9 10
      vertex 1.2 1.2 10
      vertex 1.2 18.7 10
    endloop
  endfacet
  facet normal 0 0 1
    outer loop
      vertex 22.4 19.9 10
      vertex 21.2 18.7 10
      vertex 22.4 0 10
    endloop
  endfacet
  facet normal 0 0 1
    outer loop
      vertex 22.4 19.9 10
      vertex 0 19.9 10
      vertex 21.2 18.7 10
    endloop
  endfacet
  facet normal 0 -0 1
    outer loop
      vertex 21.2 18.7 10
      vertex 21.2 1.2 10
      vertex 22.4 0 10
    endloop
  endfacet
  facet normal 0 -0 1
    outer loop
      vertex 21.2 1.2 10
      vertex 1.2 1.2 10
      vertex 22.4 0 10
    endloop
  endfacet
  facet normal 1 0 -0
    outer loop
      vertex 22.4 0 10
      vertex 22.4 0 0
      vertex 22.4 19.9 0
    endloop
  endfacet
  facet normal 1 0 0
    outer loop
      vertex 22.4 19.9 10
      vertex 22.4 0 10
      vertex 22.4 19.9 0
    endloop
  endfacet
  facet normal 1 0 -0
    outer loop
      vertex 1.2 15.2 1.2
      vertex 1.2 15.2 0
      vertex 1.2 18.7 0
    endloop
  endfacet
  facet normal 1 0 0
    outer loop
      vertex 1.2 18.7 10
      vertex 1.2 15.2 1.2
      vertex 1.2 18.7 1.2
    endloop
  endfacet
  facet normal 1 0 0
    outer loop
      vertex 1.2 18.7 1.2
      vertex 1.2 15.2 1.2
      vertex 1.2 18.7 0
    endloop
  endfacet
  facet normal 1 0 0
    outer loop
      vertex 1.2 1.2 10
      vertex 1.2 15.2 1.2
      vertex 1.2 18.7 10
    endloop
  endfacet
  facet normal 1 0 0
    outer loop
      vertex 1.2 1.2 1.2
      vertex 1.2 15.2 1.2
      vertex 1.2 1.2 10
    endloop
  endfacet
  facet normal 0 -1 0
    outer loop
      vertex 18.7 18.7 0
      vertex 18.7 18.7 1.2
      vertex 1.2 18.7 1.2
    endloop
  endfacet
  facet normal -0 -1 -0
    outer loop
      vertex 1.2 18.7 0
      vertex 18.7 18.7 0
      vertex 1.2 18.7 1.2
    endloop
  endfacet
  facet normal -1 0 0
    outer loop
      vertex 18.7 18.7 1.2
      vertex 18.7 18.7 0
      vertex 18.7 15.2 1.2
    endloop
  endfacet
  facet normal -1 0 0
    outer loop
      vertex 18.7 15.2 1.2
      vertex 18.7 18.7 0
      vertex 18.7 15.2 0
    endloop
  endfacet
  facet normal 0 1 0
    outer loop
      vertex 18.7 15.2 1.2
      vertex 18.7 15.2 0
      vertex 1.2 15.2 1.2
    endloop
  endfacet
  facet normal 0 1 -0
    outer loop
      vertex 1.2 15.2 1.2
      vertex 18.7 15.2 0
      vertex 1.2 15.2 0
    endloop
  endfacet
  facet normal 1 0 0
    outer loop
      vertex 17.2 10.7 0
      vertex 17.2 10.7 1.2
      vertex 17.2 1.2 1.2
    endloop
  endfacet
  facet normal 1 0 0
    outer loop
      vertex 17.2 1.2 0
      vertex 17.2 10.7 0
      vertex 17.2 1.2 1.2
    endloop
  endfacet
  facet normal 0 -1 0
    outer loop
      vertex 20.7 10.7 0
      vertex 20.7 10.7 1.2
      vertex 17.2 10.7 1.2
    endloop
  endfacet
  facet normal -0 -1 -0
    outer loop
      vertex 17.2 10.7 0
      vertex 20.7 10.7 0
      vertex 17.2 10.7 1.2
    endloop
  endfacet
  facet normal -1 0 0
    outer loop
      vertex 20.7 10.7 1.2
      vertex 20.7 10.7 0
      vertex 20.7 1.2 1.2
    endloop
  endfacet
  facet normal -1 0 0
    outer loop
      vertex 20.7 1.2 1.2
      vertex 20.7 10.7 0
      vertex 20.7 1.2 0
    endloop
  endfacet
  facet normal 0 1 0
    outer loop
      vertex 21.2 1.2 10
      vertex 21.2 1.2 1.2
      vertex 1.2 1.2 10
    endloop
  endfacet
  facet normal 0 1 0
    outer loop
      vertex 1.2 1.2 10
      vertex 21.2 1.2 1.2
      vertex 20.7 1.2 1.2
    endloop
  endfacet
  facet normal 0 1 0
    outer loop
      vertex 1.2 1.2 10
      vertex 20.7 1.2 1.2
      vertex 20.7 1.2 0
    endloop
  endfacet
  facet normal 0 1 -0
    outer loop
      vertex 17.2 1.2 1.2
      vertex 20.7 1.2 0
      vertex 17.2 1.2 0
    endloop
  endfacet
  facet normal 0 1 0
    outer loop
      vertex 1.2 1.2 10
      vertex 20.7 1.2 0
      vertex 17.2 1.2 1.2
    endloop
  endfacet
  facet normal 0 1 0
    outer loop
      vertex 6.2 1.2 2.6
      vertex 1.2 1.2 10
      vertex 14.2 1.2 2.6
    endloop
  endfacet
  facet normal 0 1 0
    outer loop
      vertex 1.2 1.2 10
      vertex 17.2 1.2 1.2
      vertex 14.2 1.2 2.6
    endloop
  endfacet
  facet normal -0 1 0
    outer loop
      vertex 6.2 1.2 2.6
      vertex 6.2 1.2 1.2
      vertex 1.2 1.2 10
    endloop
  endfacet
  facet normal 0 1 -0
    outer loop
      vertex 1.2 1.2 10
      vertex 6.2 1.2 1.2
      vertex 1.2 1.2 1.2
    endloop
  endfacet
  facet normal 0 1 0
    outer loop
      vertex 14.2 1.2 1.2
      vertex 14.2 1.2 2.6
      vertex 17.2 1.2 1.2
    endloop
  endfacet
  facet normal -1 0 0
    outer loop
      vertex 21.2 18.7 10
      vertex 21.2 18.7 1.2
      vertex 21.2 1.2 10
    endloop
  endfacet
  facet normal -1 0 0
    outer loop
      vertex 21.2 1.2 10
      vertex 21.2 18.7 1.2
      vertex 21.2 1.2 1.2
    endloop
  endfacet
  facet normal 0 -1 0
    outer loop
      vertex 21.2 18.7 1.2
      vertex 21.2 18.7 10
      vertex 1.2 18.7 10
    endloop
  endfacet
  facet normal -0 -1 -0
    outer loop
      vertex 1.2 18.7 1.2
      vertex 21.2 18.7 1.2
      vertex 1.2 18.7 10
    endloop
  endfacet
  facet normal 0 0 1
    outer loop
      vertex 17.2 10.7 1.2
      vertex 6.2 6.2 1.2
      vertex 14.2 6.2 1.2
    endloop
  endfacet
  facet normal 0 0 1
    outer loop
      vertex 14.2 1.2 1.2
      vertex 17.2 1.2 1.2
      vertex 14.2 6.2 1.2
    endloop
  endfacet
  facet normal 0 0 1
    outer loop
      vertex 17.2 1.2 1.2
      vertex 17.2 10.7 1.2
      vertex 14.2 6.2 1.2
    endloop
  endfacet
  facet normal -0 0 1
    outer loop
      vertex 20.7 10.7 1.2
      vertex 21.2 18.7 1.2
      vertex 17.2 10.7 1.2
    endloop
  endfacet
  facet normal 0 0 1
    outer loop
      vertex 20.7 1.2 1.2
      vertex 21.2 1.2 1.2
      vertex 20.7 10.7 1.2
    endloop
  endfacet
  facet normal 0 0 1
    outer loop
      vertex 21.2 1.2 1.2
      vertex 21.2 18.7 1.2
      vertex 20.7 10.7 1.2
    endloop
  endfacet
  facet normal 0 -0 1
    outer loop
      vertex 18.7 18.7 1.2
      vertex 18.7 15.2 1.2
      vertex 21.2 18.7 1.2
    endloop
  endfacet
  facet normal 0 0 1
    outer loop
      vertex 18.7 15.2 1.2
      vertex 6.2 14.2 1.2
      vertex 14.2 14.2 1.2
    endloop
  endfacet
  facet normal 0 0 0
    outer loop
      vertex 21.2 18.7 1.2
      vertex 1.2 18.7 1.2
      vertex 18.7 18.7 1.2
    endloop
  endfacet
  facet normal 0 0 1
    outer loop
      vertex 17.2 10.7 1.2
      vertex 21.2 18.7 1.2
      vertex 18.7 15.2 1.2
    endloop
  endfacet
  facet normal 0 -0 1
    outer loop
      vertex 1.2 15.2 1.2
      vertex 1.2 1.2 1.2
      vertex 6.2 1.2 1.2
    endloop
  endfacet
  facet normal 0 0 1
    outer loop
      vertex 14.2 10.2 1.2
      vertex 6.2 10.2 1.2
      vertex 6.2 6.2 1.2
    endloop
  endfacet
  facet normal 0 0 1
    outer loop
      vertex 17.2 10.7 1.2
      vertex 14.2 10.2 1.2
      vertex 6.2 6.2 1.2
    endloop
  endfacet
  facet normal -0 0 1
    outer loop
      vertex 17.2 10.7 1.2
      vertex 18.7 15.2 1.2
      vertex 14.2 10.2 1.2
    endloop
  endfacet
  facet normal 0 -0 1
    outer loop
      vertex 14.2 14.2 1.2
      vertex 14.2 10.2 1.2
      vertex 18.7 15.2 1.2
    endloop
  endfacet
  facet normal -0 0 1
    outer loop
      vertex 6.2 6.2 1.2
      vertex 1.2 15.2 1.2
      vertex 6.2 1.2 1.2
    endloop
  endfacet
  facet normal -0 0 1
    outer loop
      vertex 6.2 10.2 1.2
      vertex 1.2 15.2 1.2
      vertex 6.2 6.2 1.2
    endloop
  endfacet
  facet normal -0 0 1
    outer loop
      vertex 6.2 14.2 1.2
      vertex 1.2 15.2 1.2
      vertex 6.2 10.2 1.2
    endloop
  endfacet
  facet normal 0 0 1
    outer loop
      vertex 18.7 15.2 1.2
      vertex 1.2 15.2 1.2
      vertex 6.2 14.2 1.2
    endloop
  endfacet
  facet normal -1 -0 -0
    outer loop
      vertex 6.2 1.2 1.2
      vertex 6.2 1.2 2.6
      vertex 6.2 6.2 1.2
    endloop
  endfacet
  facet normal -1 0 0
    outer loop
      vertex 6.2 6.2 1.2
      vertex 6.2 1.2 2.6
      vertex 6.2 6.2 2.6
    endloop
  endfacet
  facet normal 0 -0 1
    outer loop
      vertex 6.2 6.2 2.6
      vertex 6.2 1.2 2.6
      vertex 14.2 1.2 2.6
    endloop
  endfacet
  facet normal 0 0 1
    outer loop
      vertex 14.2 6.2 2.6
      vertex 6.2 6.2 2.6
      vertex 14.2 1.2 2.6
    endloop
  endfacet
  facet normal 1 0 -0
    outer loop
      vertex 14.2 1.2 2.6
      vertex 14.2 1.2 1.2
      vertex 14.2 6.2 1.2
    endloop
  endfacet
  facet normal 1 0 0
    outer loop
      vertex 14.2 6.2 2.6
      vertex 14.2 1.2 2.6
      vertex 14.2 6.2 1.2
    endloop
  endfacet
  facet normal 0 1 0
    outer loop
      vertex 6.2 6.2 1.2
      vertex 6.2 6.2 2.6
      vertex 14.2 6.2 1.2
    endloop
  endfacet
  facet normal 0 1 0
    outer loop
      vertex 14.2 6.2 1.2
      vertex 6.2 6.2 2.6
      vertex 14.2 6.2 2.6
    endloop
  endfacet
  facet normal -1 -0 -0
    outer loop
      vertex 6.2 10.2 1.2
      vertex 6.2 10.2 2.6
      vertex 6.2 14.2 1.2
    endloop
  endfacet
  facet normal -1 0 0
    outer loop
      vertex 6.2 14.2 1.2
      vertex 6.2 10.2 2.6
      vertex 6.2 14.2 2.6
    endloop
  endfacet
  facet normal 0 1 0
    outer loop
      vertex 6.2 14.2 1.2
      vertex 6.2 14.2 2.6
      vertex 14.2 14.2 1.2
    endloop
  endfacet
  facet normal 0 1 0
    outer loop
      vertex 14.2 14.2 1.2
      vertex 6.2 14.2 2.6
      vertex 14.2 14.2 2.6
    endloop
  endfacet
  facet normal 0 -1 0
    outer loop
      vertex 6.2 10.2 2.6
      vertex 6.2 10.2 1.2
      vertex 14.2 10.2 1.2
    endloop
  endfacet
  facet normal 0 -1 0
    outer loop
      vertex 14.2 10.2 2.6
      vertex 6.2 10.2 2.6
      vertex 14.2 10.2 1.2
    endloop
  endfacet
  facet normal 1 0 -0
    outer loop
      vertex 14.2 10.2 2.6
      vertex 14.2 10.2 1.2
      vertex 14.2 14.2 1.2
    endloop
  endfacet
  facet normal 1 0 0
    outer loop
      vertex 14.2 14.2 2.6
      vertex 14.2 10.2 2.6
      vertex 14.2 14.2 1.2
    endloop
  endfacet
  facet normal 0 -0 1
    outer loop
      vertex 6.2 14.2 2.6
      vertex 6.2 10.2 2.6
      vertex 14.2 10.2 2.6
    endloop
  endfacet
  facet normal 0 0 1
    outer loop
      vertex 14.2 14.2 2.6
      vertex 6.2 14.2 2.6
      vertex 14.2 10.2 2.6
    endloop
  endfacet
endsolid OpenSCAD_Model
