solid OpenSCAD_Model
  facet normal -1 -0 -0
    outer loop
      vertex 0 1.2 0
      vertex 0 1.2 12
      vertex 0 16.1 0
    endloop
  endfacet
  facet normal -1 0 0
    outer loop
      vertex 0 16.1 0
      vertex 0 1.2 12
      vertex 0 16.1 12
    endloop
  endfacet
  facet normal -0.994522 -0.104529 -0
    outer loop
      vertex 0 1.2 0
      vertex 0.026223 0.950506 0
      vertex 0 1.2 12
    endloop
  endfacet
  facet normal -0.994522 -0.104529 0
    outer loop
      vertex 0 1.2 12
      vertex 0.026223 0.950506 0
      vertex 0.026223 0.950506 12
    endloop
  endfacet
  facet normal -0 -0 -1
    outer loop
      vertex 0 1.2 0
      vertex 0 16.1 0
      vertex 0.026223 0.950506 0
    endloop
  endfacet
  facet normal 0 0 -1
    outer loop
      vertex 0.026223 0.950506 0
      vertex 0 16.1 0
      vertex 0.026223 16.3495 0
    endloop
  endfacet
  facet normal 0 -0 -1
    outer loop
      vertex 0.026223 0.950506 0
      vertex 0.026223 16.3495 0
      vertex 0.103745 16.5881 0
    endloop
  endfacet
  facet normal 0 0 -1
    outer loop
      vertex 0.026223 0.950506 0
      vertex 0.103745 16.5881 0
      vertex 0.22918 16.8053 0
    endloop
  endfacet
  facet normal 0 0 -1
    outer loop
      vertex 0.026223 0.950506 0
      vertex 0.22918 16.8053 0
      vertex 0.397043 16.9918 0
    endloop
  endfacet
  facet normal 0 0 -1
    outer loop
      vertex 0.026223 0.950506 0
      vertex 0.397043 16.9918 0
      vertex 0.6 17.1392 0
    endloop
  endfacet
  facet normal 0 0 -1
    outer loop
      vertex 0.026223 0.950506 0
      vertex 0.6 17.1392 0
      vertex 0.82918 17.2413 0
    endloop
  endfacet
  facet normal 0 0 -1
    outer loop
      vertex 0.026223 0.950506 0
      vertex 0.82918 17.2413 0
      vertex 1.07457 17.2934 0
    endloop
  endfacet
  facet normal 0 0 -1
    outer loop
      vertex 0.026223 0.950506 0
      vertex 1.07457 17.2934 0
      vertex 18.7254 17.2934 0
    endloop
  endfacet
  facet normal 0 0 -1
    outer loop
      vertex 0.026223 0.950506 0
      vertex 18.7254 17.2934 0
      vertex 18.9708 17.2413 0
    endloop
  endfacet
  facet normal 0 0 -1
    outer loop
      vertex 0.026223 0.950506 0
      vertex 18.9708 17.2413 0
      vertex 19.2 17.1392 0
    endloop
  endfacet
  facet normal 0 0 -1
    outer loop
      vertex 0.026223 0.950506 0
      vertex 19.2 17.1392 0
      vertex 19.403 16.9918 0
    endloop
  endfacet
  facet normal 0 0 -1
    outer loop
      vertex 0.026223 0.950506 0
      vertex 19.403 16.9918 0
      vertex 19.5708 16.8053 0
    endloop
  endfacet
  facet normal 0 0 -1
    outer loop
      vertex 0.026223 0.950506 0
      vertex 19.5708 16.8053 0
      vertex 19.6963 16.5881 0
    endloop
  endfacet
  facet normal 0 0 -1
    outer loop
      vertex 0.026223 0.950506 0
      vertex 19.6963 16.5881 0
      vertex 19.7738 16.3495 0
    endloop
  endfacet
  facet normal 0 0 -1
    outer loop
      vertex 0.026223 0.950506 0
      vertex 19.7738 16.3495 0
      vertex 19.8 16.1 0
    endloop
  endfacet
  facet normal 0 0 -1
    outer loop
      vertex 0.026223 0.950506 0
      vertex 19.8 16.1 0
      vertex 19.8 1.2 0
    endloop
  endfacet
  facet normal -0 0 -1
    outer loop
      vertex 0.026223 0.950506 0
      vertex 19.8 1.2 0
      vertex 19.7738 0.950506 0
    endloop
  endfacet
  facet normal 0 0 -1
    outer loop
      vertex 0.026223 0.950506 0
      vertex 19.7738 0.950506 0
      vertex 19.6963 0.711916 0
    endloop
  endfacet
  facet normal 0 0 -1
    outer loop
      vertex 0.026223 0.950506 0
      vertex 19.6963 0.711916 0
      vertex 19.5708 0.494658 0
    endloop
  endfacet
  facet normal 0 0 -1
    outer loop
      vertex 0.026223 0.950506 0
      vertex 19.5708 0.494658 0
      vertex 19.403 0.308226 0
    endloop
  endfacet
  facet normal 0 0 -1
    outer loop
      vertex 0.026223 0.950506 0
      vertex 19.403 0.308226 0
      vertex 19.2 0.16077 0
    endloop
  endfacet
  facet normal 0 0 -1
    outer loop
      vertex 0.026223 0.950506 0
      vertex 19.2 0.16077 0
      vertex 18.9708 0.058732 0
    endloop
  endfacet
  facet normal 0 0 -1
    outer loop
      vertex 0.026223 0.950506 0
      vertex 18.9708 0.058732 0
      vertex 18.7254 0.006574 0
    endloop
  endfacet
  facet normal 0 0 -1
    outer loop
      vertex 0.026223 0.950506 0
      vertex 18.7254 0.006574 0
      vertex 1.07457 0.006574 0
    endloop
  endfacet
  facet normal 0 0 -1
    outer loop
      vertex 0.026223 0.950506 0
      vertex 1.07457 0.006574 0
      vertex 0.82918 0.058732 0
    endloop
  endfacet
  facet normal 0 0 -1
    outer loop
      vertex 0.026223 0.950506 0
      vertex 0.82918 0.058732 0
      vertex 0.6 0.16077 0
    endloop
  endfacet
  facet normal 0 0 -1
    outer loop
      vertex 0.026223 0.950506 0
      vertex 0.6 0.16077 0
      vertex 0.397043 0.308226 0
    endloop
  endfacet
  facet normal 0 0 -1
    outer loop
      vertex 0.026223 0.950506 0
      vertex 0.397043 0.308226 0
      vertex 0.22918 0.494658 0
    endloop
  endfacet
  facet normal 0 0 -1
    outer loop
      vertex 0.026223 0.950506 0
      vertex 0.22918 0.494658 0
      vertex 0.103745 0.711916 0
    endloop
  endfacet
  facet normal -0.994522 0.104529 0
    outer loop
      vertex 0 16.1 0
      vertex 0 16.1 12
      vertex 0.026223 16.3495 0
    endloop
  endfacet
  facet normal -0.994522 0.104529 0
    outer loop
      vertex 0.026223 16.3495 0
      vertex 0 16.1 12
      vertex 0.026223 16.3495 12
    endloop
  endfacet
  facet normal 0 -0 1
    outer loop
      vertex 0 16.1 12
      vertex 0 1.2 12
      vertex 0.026223 0.950506 12
    endloop
  endfacet
  facet normal 0 0 1
    outer loop
      vertex 0.22918 0.494658 12
      vertex 0 16.1 12
      vertex 0.103745 0.711916 12
    endloop
  endfacet
  facet normal 0 0 1
    outer loop
      vertex 0.103745 0.711916 12
      vertex 0 16.1 12
      vertex 0.026223 0.950506 12
    endloop
  endfacet
  facet normal 0 0 1
    outer loop
      vertex 0.397043 0.308226 12
      vertex 0 16.1 12
      vertex 0.22918 0.494658 12
    endloop
  endfacet
  facet normal 0 0 1
    outer loop
      vertex 0.6 0.16077 12
      vertex 0 16.1 12
      vertex 0.397043 0.308226 12
    endloop
  endfacet
  facet normal 0 0 1
    outer loop
      vertex 0.82918 0.058732 12
      vertex 0 16.1 12
      vertex 0.6 0.16077 12
    endloop
  endfacet
  facet normal 0 0 1
    outer loop
      vertex 1.07457 0.006574 12
      vertex 0 16.1 12
      vertex 0.82918 0.058732 12
    endloop
  endfacet
  facet normal -0 0 1
    outer loop
      vertex 1.2 1.2 12
      vertex 0 16.1 12
      vertex 1.07457 0.006574 12
    endloop
  endfacet
  facet normal 0 0 1
    outer loop
      vertex 1.2 1.2 12
      vertex 1.2 16.1 12
      vertex 0 16.1 12
    endloop
  endfacet
  facet normal -0 0 1
    outer loop
      vertex 2.4 0.006574 12
      vertex 1.2 1.2 12
      vertex 1.07457 0.006574 12
    endloop
  endfacet
  facet normal -0 0 1.78683e-016
    outer loop
      vertex 18.6 16.1 12
      vertex 0 16.1 12
      vertex 1.2 16.1 12
    endloop
  endfacet
  facet normal 0 0 1.4803e-015
    outer loop
      vertex 19.8 16.1 12
      vertex 17.4 16.1 12
      vertex 18.6 16.1 12
    endloop
  endfacet
  facet normal 0 0 1
    outer loop
      vertex 18.7254 0.006574 12
      vertex 18.6 16.1 12
      vertex 18.6 1.2 12
    endloop
  endfacet
  facet normal -0 0 1
    outer loop
      vertex 18.7254 0.006574 12
      vertex 18.6 1.2 12
      vertex 17.4 0.006574 12
    endloop
  endfacet
  facet normal -0 0 1
    outer loop
      vertex 18.9708 0.058732 12
      vertex 18.6 16.1 12
      vertex 18.7254 0.006574 12
    endloop
  endfacet
  facet normal -0 0 1
    outer loop
      vertex 19.2 0.16077 12
      vertex 18.6 16.1 12
      vertex 18.9708 0.058732 12
    endloop
  endfacet
  facet normal -0 0 1
    outer loop
      vertex 19.403 0.308226 12
      vertex 18.6 16.1 12
      vertex 19.2 0.16077 12
    endloop
  endfacet
  facet normal -0 0 1
    outer loop
      vertex 19.5708 0.494658 12
      vertex 18.6 16.1 12
      vertex 19.403 0.308226 12
    endloop
  endfacet
  facet normal -0 0 1
    outer loop
      vertex 19.6963 0.711916 12
      vertex 18.6 16.1 12
      vertex 19.5708 0.494658 12
    endloop
  endfacet
  facet normal -0 0 1
    outer loop
      vertex 19.7738 0.950506 12
      vertex 18.6 16.1 12
      vertex 19.6963 0.711916 12
    endloop
  endfacet
  facet normal -0 0 1
    outer loop
      vertex 19.8 1.2 12
      vertex 18.6 16.1 12
      vertex 19.7738 0.950506 12
    endloop
  endfacet
  facet normal 0 0 1
    outer loop
      vertex 19.8 16.1 12
      vertex 18.6 16.1 12
      vertex 19.8 1.2 12
    endloop
  endfacet
  facet normal 0 -0 2.36848e-016
    outer loop
      vertex 17.4 16.1 12
      vertex 2.4 16.1 12
      vertex 18.6 16.1 12
    endloop
  endfacet
  facet normal 0 -0 1
    outer loop
      vertex 19.7738 16.3495 12
      vertex 17.4 16.1 12
      vertex 19.8 16.1 12
    endloop
  endfacet
  facet normal 0 -0 3.24894e-017
    outer loop
      vertex 2.4 16.1 12
      vertex 0 16.1 12
      vertex 18.6 16.1 12
    endloop
  endfacet
  facet normal -0 0 1
    outer loop
      vertex 2.4 16.1 12
      vertex 2.4 17.2934 12
      vertex 0 16.1 12
    endloop
  endfacet
  facet normal 0 -0 1
    outer loop
      vertex 1.07457 17.2934 12
      vertex 0 16.1 12
      vertex 2.4 17.2934 12
    endloop
  endfacet
  facet normal 0 -0 1
    outer loop
      vertex 0.82918 17.2413 12
      vertex 0 16.1 12
      vertex 1.07457 17.2934 12
    endloop
  endfacet
  facet normal 0 -0 1
    outer loop
      vertex 0.6 17.1392 12
      vertex 0 16.1 12
      vertex 0.82918 17.2413 12
    endloop
  endfacet
  facet normal 0 -0 1
    outer loop
      vertex 0.397043 16.9918 12
      vertex 0 16.1 12
      vertex 0.6 17.1392 12
    endloop
  endfacet
  facet normal 0 -0 1
    outer loop
      vertex 0.22918 16.8053 12
      vertex 0 16.1 12
      vertex 0.397043 16.9918 12
    endloop
  endfacet
  facet normal 0 -0 1
    outer loop
      vertex 0.103745 16.5881 12
      vertex 0 16.1 12
      vertex 0.22918 16.8053 12
    endloop
  endfacet
  facet normal 0 -0 1
    outer loop
      vertex 0.026223 16.3495 12
      vertex 0 16.1 12
      vertex 0.103745 16.5881 12
    endloop
  endfacet
  facet normal 0 -0 1
    outer loop
      vertex 17.4 1.2 12
      vertex 17.4 0.006574 12
      vertex 18.6 1.2 12
    endloop
  endfacet
  facet normal 0 0 1
    outer loop
      vertex 2.4 1.2 12
      vertex 1.2 1.2 12
      vertex 2.4 0.006574 12
    endloop
  endfacet
  facet normal 0 0 1
    outer loop
      vertex 17.4 17.2934 12
      vertex 18.9708 17.2413 12
      vertex 18.7254 17.2934 12
    endloop
  endfacet
  facet normal 0 0 1
    outer loop
      vertex 17.4 17.2934 12
      vertex 19.2 17.1392 12
      vertex 18.9708 17.2413 12
    endloop
  endfacet
  facet normal 0 0 1
    outer loop
      vertex 17.4 17.2934 12
      vertex 19.403 16.9918 12
      vertex 19.2 17.1392 12
    endloop
  endfacet
  facet normal 0 0 1
    outer loop
      vertex 17.4 17.2934 12
      vertex 19.5708 16.8053 12
      vertex 19.403 16.9918 12
    endloop
  endfacet
  facet normal 0 0 1
    outer loop
      vertex 17.4 17.2934 12
      vertex 19.6963 16.5881 12
      vertex 19.5708 16.8053 12
    endloop
  endfacet
  facet normal 0 0 1
    outer loop
      vertex 17.4 17.2934 12
      vertex 19.7738 16.3495 12
      vertex 19.6963 16.5881 12
    endloop
  endfacet
  facet normal 0 -0 1
    outer loop
      vertex 17.4 17.2934 12
      vertex 17.4 16.1 12
      vertex 19.7738 16.3495 12
    endloop
  endfacet
  facet normal -0.951057 -0.309015 -0
    outer loop
      vertex 0.026223 0.950506 0
      vertex 0.103745 0.711916 0
      vertex 0.026223 0.950506 12
    endloop
  endfacet
  facet normal -0.951057 -0.309015 0
    outer loop
      vertex 0.026223 0.950506 12
      vertex 0.103745 0.711916 0
      vertex 0.103745 0.711916 12
    endloop
  endfacet
  facet normal -0.866024 -0.500003 -0
    outer loop
      vertex 0.103745 0.711916 0
      vertex 0.22918 0.494658 0
      vertex 0.103745 0.711916 12
    endloop
  endfacet
  facet normal -0.866024 -0.500003 0
    outer loop
      vertex 0.103745 0.711916 12
      vertex 0.22918 0.494658 0
      vertex 0.22918 0.494658 12
    endloop
  endfacet
  facet normal -0.743147 -0.669128 -0
    outer loop
      vertex 0.22918 0.494658 0
      vertex 0.397043 0.308226 0
      vertex 0.22918 0.494658 12
    endloop
  endfacet
  facet normal -0.743147 -0.669128 0
    outer loop
      vertex 0.22918 0.494658 12
      vertex 0.397043 0.308226 0
      vertex 0.397043 0.308226 12
    endloop
  endfacet
  facet normal -0.587783 -0.809019 0
    outer loop
      vertex 0.397043 0.308226 12
      vertex 0.397043 0.308226 0
      vertex 0.6 0.16077 0
    endloop
  endfacet
  facet normal -0.587783 -0.809019 0
    outer loop
      vertex 0.6 0.16077 12
      vertex 0.397043 0.308226 12
      vertex 0.6 0.16077 0
    endloop
  endfacet
  facet normal -0.406738 -0.913545 0
    outer loop
      vertex 0.6 0.16077 12
      vertex 0.6 0.16077 0
      vertex 0.82918 0.058732 0
    endloop
  endfacet
  facet normal -0.406738 -0.913545 0
    outer loop
      vertex 0.82918 0.058732 12
      vertex 0.6 0.16077 12
      vertex 0.82918 0.058732 0
    endloop
  endfacet
  facet normal -0.20791 -0.978148 0
    outer loop
      vertex 0.82918 0.058732 12
      vertex 0.82918 0.058732 0
      vertex 1.07457 0.006574 0
    endloop
  endfacet
  facet normal -0.20791 -0.978148 0
    outer loop
      vertex 1.07457 0.006574 12
      vertex 0.82918 0.058732 12
      vertex 1.07457 0.006574 0
    endloop
  endfacet
  facet normal 0 -1 0
    outer loop
      vertex 1.07457 0.006574 12
      vertex 1.07457 0.006574 0
      vertex 18.7254 0.006574 0
    endloop
  endfacet
  facet normal 0 -1 0
    outer loop
      vertex 2.4 0.006574 12
      vertex 1.07457 0.006574 12
      vertex 18.7254 0.006574 0
    endloop
  endfacet
  facet normal 0 -1 0
    outer loop
      vertex 18.7254 0.006574 12
      vertex 17.4 0.006574 12
      vertex 18.7254 0.006574 0
    endloop
  endfacet
  facet normal 0 -1 0
    outer loop
      vertex 17.4 0.006574 12
      vertex 2.4 0.006574 12
      vertex 18.7254 0.006574 0
    endloop
  endfacet
  facet normal 0.20791 -0.978148 0
    outer loop
      vertex 18.7254 0.006574 12
      vertex 18.7254 0.006574 0
      vertex 18.9708 0.058732 0
    endloop
  endfacet
  facet normal 0.20791 -0.978148 0
    outer loop
      vertex 18.9708 0.058732 12
      vertex 18.7254 0.006574 12
      vertex 18.9708 0.058732 0
    endloop
  endfacet
  facet normal 0.406738 -0.913545 0
    outer loop
      vertex 18.9708 0.058732 12
      vertex 18.9708 0.058732 0
      vertex 19.2 0.16077 0
    endloop
  endfacet
  facet normal 0.406738 -0.913545 0
    outer loop
      vertex 19.2 0.16077 12
      vertex 18.9708 0.058732 12
      vertex 19.2 0.16077 0
    endloop
  endfacet
  facet normal 0.587783 -0.809019 0
    outer loop
      vertex 19.2 0.16077 12
      vertex 19.2 0.16077 0
      vertex 19.403 0.308226 0
    endloop
  endfacet
  facet normal 0.587783 -0.809019 0
    outer loop
      vertex 19.403 0.308226 12
      vertex 19.2 0.16077 12
      vertex 19.403 0.308226 0
    endloop
  endfacet
  facet normal 0.743147 -0.669128 0
    outer loop
      vertex 19.403 0.308226 12
      vertex 19.403 0.308226 0
      vertex 19.5708 0.494658 0
    endloop
  endfacet
  facet normal 0.743147 -0.669128 0
    outer loop
      vertex 19.5708 0.494658 12
      vertex 19.403 0.308226 12
      vertex 19.5708 0.494658 0
    endloop
  endfacet
  facet normal 0.866024 -0.500003 0
    outer loop
      vertex 19.5708 0.494658 12
      vertex 19.5708 0.494658 0
      vertex 19.6963 0.711916 0
    endloop
  endfacet
  facet normal 0.866024 -0.500003 0
    outer loop
      vertex 19.6963 0.711916 12
      vertex 19.5708 0.494658 12
      vertex 19.6963 0.711916 0
    endloop
  endfacet
  facet normal 0.951057 -0.309015 0
    outer loop
      vertex 19.6963 0.711916 12
      vertex 19.6963 0.711916 0
      vertex 19.7738 0.950506 0
    endloop
  endfacet
  facet normal 0.951057 -0.309015 0
    outer loop
      vertex 19.7738 0.950506 12
      vertex 19.6963 0.711916 12
      vertex 19.7738 0.950506 0
    endloop
  endfacet
  facet normal 0.994522 -0.104529 0
    outer loop
      vertex 19.7738 0.950506 12
      vertex 19.7738 0.950506 0
      vertex 19.8 1.2 0
    endloop
  endfacet
  facet normal 0.994522 -0.104529 0
    outer loop
      vertex 19.8 1.2 12
      vertex 19.7738 0.950506 12
      vertex 19.8 1.2 0
    endloop
  endfacet
  facet normal 1 0 -0
    outer loop
      vertex 19.8 1.2 12
      vertex 19.8 1.2 0
      vertex 19.8 16.1 0
    endloop
  endfacet
  facet normal 1 0 0
    outer loop
      vertex 19.8 16.1 12
      vertex 19.8 1.2 12
      vertex 19.8 16.1 0
    endloop
  endfacet
  facet normal 0.994522 0.104529 0
    outer loop
      vertex 19.8 16.1 0
      vertex 19.7738 16.3495 0
      vertex 19.7738 16.3495 12
    endloop
  endfacet
  facet normal 0.994522 0.104529 -0
    outer loop
      vertex 19.8 16.1 12
      vertex 19.8 16.1 0
      vertex 19.7738 16.3495 12
    endloop
  endfacet
  facet normal 0.951057 0.309015 0
    outer loop
      vertex 19.7738 16.3495 0
      vertex 19.6963 16.5881 0
      vertex 19.6963 16.5881 12
    endloop
  endfacet
  facet normal 0.951057 0.309015 -0
    outer loop
      vertex 19.7738 16.3495 12
      vertex 19.7738 16.3495 0
      vertex 19.6963 16.5881 12
    endloop
  endfacet
  facet normal 0.866024 0.500003 0
    outer loop
      vertex 19.6963 16.5881 0
      vertex 19.5708 16.8053 0
      vertex 19.5708 16.8053 12
    endloop
  endfacet
  facet normal 0.866024 0.500003 -0
    outer loop
      vertex 19.6963 16.5881 12
      vertex 19.6963 16.5881 0
      vertex 19.5708 16.8053 12
    endloop
  endfacet
  facet normal 0.743147 0.669128 0
    outer loop
      vertex 19.5708 16.8053 0
      vertex 19.403 16.9918 0
      vertex 19.403 16.9918 12
    endloop
  endfacet
  facet normal 0.743147 0.669128 -0
    outer loop
      vertex 19.5708 16.8053 12
      vertex 19.5708 16.8053 0
      vertex 19.403 16.9918 12
    endloop
  endfacet
  facet normal 0.587783 0.809019 0
    outer loop
      vertex 19.2 17.1392 0
      vertex 19.2 17.1392 12
      vertex 19.403 16.9918 0
    endloop
  endfacet
  facet normal 0.587783 0.809019 0
    outer loop
      vertex 19.403 16.9918 0
      vertex 19.2 17.1392 12
      vertex 19.403 16.9918 12
    endloop
  endfacet
  facet normal 0.406738 0.913545 0
    outer loop
      vertex 18.9708 17.2413 0
      vertex 18.9708 17.2413 12
      vertex 19.2 17.1392 0
    endloop
  endfacet
  facet normal 0.406738 0.913545 0
    outer loop
      vertex 19.2 17.1392 0
      vertex 18.9708 17.2413 12
      vertex 19.2 17.1392 12
    endloop
  endfacet
  facet normal 0.20791 0.978148 0
    outer loop
      vertex 18.7254 17.2934 0
      vertex 18.7254 17.2934 12
      vertex 18.9708 17.2413 0
    endloop
  endfacet
  facet normal 0.20791 0.978148 0
    outer loop
      vertex 18.9708 17.2413 0
      vertex 18.7254 17.2934 12
      vertex 18.9708 17.2413 12
    endloop
  endfacet
  facet normal 0 1 0
    outer loop
      vertex 1.07457 17.2934 0
      vertex 1.07457 17.2934 12
      vertex 18.7254 17.2934 0
    endloop
  endfacet
  facet normal 0 1 0
    outer loop
      vertex 18.7254 17.2934 0
      vertex 1.07457 17.2934 12
      vertex 2.4 17.2934 12
    endloop
  endfacet
  facet normal 0 1 0
    outer loop
      vertex 18.7254 17.2934 0
      vertex 2.4 17.2934 12
      vertex 17.4 17.2934 12
    endloop
  endfacet
  facet normal 0 1 0
    outer loop
      vertex 18.7254 17.2934 0
      vertex 17.4 17.2934 12
      vertex 18.7254 17.2934 12
    endloop
  endfacet
  facet normal -0.20791 0.978148 0
    outer loop
      vertex 0.82918 17.2413 0
      vertex 0.82918 17.2413 12
      vertex 1.07457 17.2934 0
    endloop
  endfacet
  facet normal -0.20791 0.978148 0
    outer loop
      vertex 1.07457 17.2934 0
      vertex 0.82918 17.2413 12
      vertex 1.07457 17.2934 12
    endloop
  endfacet
  facet normal -0.406738 0.913545 0
    outer loop
      vertex 0.6 17.1392 0
      vertex 0.6 17.1392 12
      vertex 0.82918 17.2413 0
    endloop
  endfacet
  facet normal -0.406738 0.913545 0
    outer loop
      vertex 0.82918 17.2413 0
      vertex 0.6 17.1392 12
      vertex 0.82918 17.2413 12
    endloop
  endfacet
  facet normal -0.587783 0.809019 0
    outer loop
      vertex 0.397043 16.9918 0
      vertex 0.397043 16.9918 12
      vertex 0.6 17.1392 0
    endloop
  endfacet
  facet normal -0.587783 0.809019 0
    outer loop
      vertex 0.6 17.1392 0
      vertex 0.397043 16.9918 12
      vertex 0.6 17.1392 12
    endloop
  endfacet
  facet normal -0.743147 0.669128 0
    outer loop
      vertex 0.22918 16.8053 0
      vertex 0.22918 16.8053 12
      vertex 0.397043 16.9918 0
    endloop
  endfacet
  facet normal -0.743147 0.669128 0
    outer loop
      vertex 0.397043 16.9918 0
      vertex 0.22918 16.8053 12
      vertex 0.397043 16.9918 12
    endloop
  endfacet
  facet normal -0.866024 0.500003 0
    outer loop
      vertex 0.103745 16.5881 0
      vertex 0.103745 16.5881 12
      vertex 0.22918 16.8053 0
    endloop
  endfacet
  facet normal -0.866024 0.500003 0
    outer loop
      vertex 0.22918 16.8053 0
      vertex 0.103745 16.5881 12
      vertex 0.22918 16.8053 12
    endloop
  endfacet
  facet normal -0.951057 0.309015 0
    outer loop
      vertex 0.026223 16.3495 0
      vertex 0.026223 16.3495 12
      vertex 0.103745 16.5881 0
    endloop
  endfacet
  facet normal -0.951057 0.309015 0
    outer loop
      vertex 0.103745 16.5881 0
      vertex 0.026223 16.3495 12
      vertex 0.103745 16.5881 12
    endloop
  endfacet
  facet normal 0 0 -1
    outer loop
      vertex 17.4 17.3 12
      vertex 17.4 17.2934 12
      vertex 2.4 17.3 12
    endloop
  endfacet
  facet normal 0 0 -1
    outer loop
      vertex 2.4 17.3 12
      vertex 17.4 17.2934 12
      vertex 2.4 17.2934 12
    endloop
  endfacet
  facet normal -1 -0 -0
    outer loop
      vertex 2.4 16.1 12
      vertex 2.4 16.1 16
      vertex 2.4 17.2934 12
    endloop
  endfacet
  facet normal -1 0 -0
    outer loop
      vertex 2.4 17.2934 12
      vertex 2.4 16.1 16
      vertex 2.4 17.3 16
    endloop
  endfacet
  facet normal -1 -0 0
    outer loop
      vertex 2.4 17.2934 12
      vertex 2.4 17.3 16
      vertex 2.4 17.3 12
    endloop
  endfacet
  facet normal 0 -1 0
    outer loop
      vertex 2.4 16.1 16
      vertex 2.4 16.1 12
      vertex 17.4 16.1 12
    endloop
  endfacet
  facet normal 0 -1 0
    outer loop
      vertex 17.4 16.1 16
      vertex 2.4 16.1 16
      vertex 17.4 16.1 12
    endloop
  endfacet
  facet normal 1 0 -0
    outer loop
      vertex 17.4 16.1 16
      vertex 17.4 16.1 12
      vertex 17.4 17.2934 12
    endloop
  endfacet
  facet normal 1 0 0
    outer loop
      vertex 17.4 17.3 16
      vertex 17.4 16.1 16
      vertex 17.4 17.3 12
    endloop
  endfacet
  facet normal 1 -0 0
    outer loop
      vertex 17.4 17.3 12
      vertex 17.4 16.1 16
      vertex 17.4 17.2934 12
    endloop
  endfacet
  facet normal 0 0 -1
    outer loop
      vertex 17.4 0.006574 12
      vertex 17.4 0 12
      vertex 2.4 0.006574 12
    endloop
  endfacet
  facet normal 0 0 -1
    outer loop
      vertex 2.4 0.006574 12
      vertex 17.4 0 12
      vertex 2.4 0 12
    endloop
  endfacet
  facet normal 1 0 -0
    outer loop
      vertex 17.4 0 16
      vertex 17.4 0 12
      vertex 17.4 0.006574 12
    endloop
  endfacet
  facet normal 1 0 0
    outer loop
      vertex 17.4 1.2 16
      vertex 17.4 0 16
      vertex 17.4 1.2 12
    endloop
  endfacet
  facet normal 1 -0 0
    outer loop
      vertex 17.4 1.2 12
      vertex 17.4 0 16
      vertex 17.4 0.006574 12
    endloop
  endfacet
  facet normal 0 1 0
    outer loop
      vertex 2.4 1.2 12
      vertex 2.4 1.2 16
      vertex 17.4 1.2 12
    endloop
  endfacet
  facet normal 0 1 0
    outer loop
      vertex 17.4 1.2 12
      vertex 2.4 1.2 16
      vertex 17.4 1.2 16
    endloop
  endfacet
  facet normal 0 1 -0
    outer loop
      vertex 17.4 1.2 12
      vertex 18.6 1.2 1.2
      vertex 2.4 1.2 12
    endloop
  endfacet
  facet normal 0 1 -0
    outer loop
      vertex 2.4 1.2 12
      vertex 18.6 1.2 1.2
      vertex 1.2 1.2 12
    endloop
  endfacet
  facet normal 0 1 0
    outer loop
      vertex 18.6 1.2 12
      vertex 18.6 1.2 1.2
      vertex 17.4 1.2 12
    endloop
  endfacet
  facet normal 0 1 -0
    outer loop
      vertex 1.2 1.2 12
      vertex 18.6 1.2 1.2
      vertex 1.2 1.2 1.2
    endloop
  endfacet
  facet normal -1 0 0
    outer loop
      vertex 18.6 16.1 12
      vertex 18.6 16.1 1.2
      vertex 18.6 1.2 12
    endloop
  endfacet
  facet normal -1 0 0
    outer loop
      vertex 18.6 1.2 12
      vertex 18.6 16.1 1.2
      vertex 18.6 1.2 1.2
    endloop
  endfacet
  facet normal 0 -1 0
    outer loop
      vertex 18.6 16.1 1.2
      vertex 18.6 16.1 12
      vertex 1.2 16.1 12
    endloop
  endfacet
  facet normal -0 -1 -0
    outer loop
      vertex 1.2 16.1 1.2
      vertex 18.6 16.1 1.2
      vertex 1.2 16.1 12
    endloop
  endfacet
  facet normal 1 0 0
    outer loop
      vertex 1.2 16.1 1.2
      vertex 1.2 16.1 12
      vertex 1.2 1.2 12
    endloop
  endfacet
  facet normal 1 0 0
    outer loop
      vertex 1.2 1.2 1.2
      vertex 1.2 16.1 1.2
      vertex 1.2 1.2 12
    endloop
  endfacet
  facet normal -1 -0 -0
    outer loop
      vertex 2.4 0 12
      vertex 2.4 0 16
      vertex 2.4 0.006574 12
    endloop
  endfacet
  facet normal -1 0 -0
    outer loop
      vertex 2.4 0.006574 12
      vertex 2.4 0 16
      vertex 2.4 1.2 16
    endloop
  endfacet
  facet normal -1 -0 0
    outer loop
      vertex 2.4 0.006574 12
      vertex 2.4 1.2 16
      vertex 2.4 1.2 12
    endloop
  endfacet
  facet normal 0 1 0
    outer loop
      vertex 2.4 17.3 12
      vertex 2.4 17.3 16
      vertex 17.4 17.3 12
    endloop
  endfacet
  facet normal 0 1 0
    outer loop
      vertex 17.4 17.3 12
      vertex 2.4 17.3 16
      vertex 17.4 17.3 16
    endloop
  endfacet
  facet normal 0 -0 1
    outer loop
      vertex 2.4 17.3 16
      vertex 2.4 16.1 16
      vertex 17.4 16.1 16
    endloop
  endfacet
  facet normal 0 0 1
    outer loop
      vertex 17.4 17.3 16
      vertex 2.4 17.3 16
      vertex 17.4 16.1 16
    endloop
  endfacet
  facet normal 0 -1 0
    outer loop
      vertex 2.4 0 16
      vertex 2.4 0 12
      vertex 17.4 0 12
    endloop
  endfacet
  facet normal 0 -1 0
    outer loop
      vertex 17.4 0 16
      vertex 2.4 0 16
      vertex 17.4 0 12
    endloop
  endfacet
  facet normal 0 -0 1
    outer loop
      vertex 2.4 1.2 16
      vertex 2.4 0 16
      vertex 17.4 0 16
    endloop
  endfacet
  facet normal 0 0 1
    outer loop
      vertex 17.4 1.2 16
      vertex 2.4 1.2 16
      vertex 17.4 0 16
    endloop
  endfacet
  facet normal 0 0 1
    outer loop
      vertex 18.6 1.2 1.2
      vertex 18.6 16.1 1.2
      vertex 1.2 16.1 1.2
    endloop
  endfacet
  facet normal 0 0 1
    outer loop
      vertex 1.2 1.2 1.2
      vertex 18.6 1.2 1.2
      vertex 1.2 16.1 1.2
    endloop
  endfacet
endsolid OpenSCAD_Model
